<svg width="145" height="144" viewBox="0 0 145 144" fill="none" xmlns="http://www.w3.org/2000/svg">
<circle cx="73.4353" cy="75.4949" r="54.0446" transform="rotate(16.4471 73.4353 75.4949)" fill="url(#paint0_linear_190_16403)" stroke="url(#paint1_linear_190_16403)" stroke-width="0.865103"/>
<path d="M59.6654 90.3963L60.1834 91.0189L60.4127 90.2421L62.5425 83.0279L62.6141 82.7853L62.4378 82.6039L57.8282 77.8613L54.5015 74.2861L59.2501 73.0456L65.6786 71.6168L65.9274 71.5615L65.9996 71.3171L68.1293 64.1028L68.3586 63.326L67.5855 63.5674L49.5459 69.2007L49.3254 69.2695L49.26 69.4911L47.495 75.47L47.4296 75.6916L47.5773 75.8692L59.6654 90.3963ZM62.8875 94.5097L62.681 94.9629L63.1586 95.1039L66.7373 96.1603L67.0976 96.2667L67.2534 95.9248L81.6249 64.3747L81.8313 63.9216L81.3537 63.7806L77.7751 62.7241L77.4147 62.6177L77.259 62.9597L62.8875 94.5097ZM76.6934 95.0483L76.4641 95.8251L77.2372 95.5837L95.2767 89.9505L95.4972 89.8816L95.5627 89.66L97.3277 83.6811L97.3931 83.4595L97.2453 83.282L85.1573 68.7548L84.6393 68.1322L84.4099 68.909L82.2802 76.1233L82.2081 76.3677L82.387 76.5493L87.0089 81.2403L90.3224 84.8607L85.5875 86.0561L79.1412 87.5349L78.8947 87.5915L78.8231 87.8341L76.6934 95.0483Z" fill="black" stroke="black" stroke-width="0.865103"/>
<path d="M29.6848 70.3L27.7728 70.1855L27.3879 76.617L33.4717 76.9811L33.6069 74.7214L31.9991 74.6252L32.2175 70.9749L30.3055 70.8604L30.087 74.5107L29.4352 74.4717L29.6848 70.3Z" fill="black"/>
<path d="M32.061 61.6661C30.747 61.3221 29.5633 61.9931 29.2126 63.3323L27.9996 67.9648L33.8955 69.5087L34.4689 67.3188L33.0876 66.9571L33.425 65.6684L35.0203 65.2131L35.6996 62.6189L33.7332 63.22C33.524 62.4722 32.9201 61.8911 32.061 61.6661ZM30.426 66.2601L30.9553 64.2387C31.0127 64.0197 31.0833 63.7502 31.4876 63.856C31.8918 63.9619 31.8213 64.2314 31.7639 64.4504L31.2346 66.4719L30.426 66.2601Z" fill="black"/>
<path d="M37.6939 58.2905C38.8795 55.8949 38.4724 54.4013 36.5762 53.4629C34.6878 52.5283 33.2611 53.1143 32.0755 55.5099C30.886 57.9133 31.2814 59.3913 33.1776 60.3298C35.0816 61.2721 36.5044 60.6939 37.6939 58.2905ZM35.9771 57.4409C35.3863 58.6348 34.767 58.5906 34.1817 58.3009C33.6043 58.0151 33.1975 57.5612 33.7922 56.3595C34.387 55.1578 35.0024 55.2098 35.572 55.4917C36.1495 55.7775 36.568 56.247 35.9771 57.4409Z" fill="black"/>
<path d="M38.2395 46.126L41.0489 48.3704L36.5983 48.1803L34.7506 50.4931L39.5123 54.2973L40.9253 52.5286L38.1159 50.2842L42.5665 50.4743L44.4142 48.1615L39.6525 44.3574L38.2395 46.126Z" fill="black"/>
<path d="M47.0416 37.907L41.2355 42.6351L42.445 44.1204L44.4704 42.4711L47.1093 45.7117L48.8647 44.2823L46.2257 41.0416L48.2511 39.3923L47.0416 37.907Z" fill="black"/>
<path d="M49.8661 38.6675L50.6698 40.2123L56.8488 36.9973L56.0451 35.4525L49.8661 38.6675Z" fill="black"/>
<path d="M63.7138 32.4007L63.2227 30.7301L57.0413 32.5472L58.7602 38.3945L64.9416 36.5774L64.4505 34.9067L60.4409 36.0854L60.2813 35.5424L64.2909 34.3638L63.8735 32.9437L59.8639 34.1224L59.7043 33.5794L63.7138 32.4007Z" fill="black"/>
<path d="M70.8042 29.7081L71.0947 33.2922L68.1834 29.9205L65.2328 30.1597L65.7251 36.2344L67.9814 36.0516L67.691 32.4675L70.6023 35.8392L73.5529 35.6L73.0605 29.5253L70.8042 29.7081Z" fill="black"/>
<path d="M79.915 30.0851L75.4273 29.4861L74.621 35.5272L79.1086 36.1262C80.5671 36.3209 82.0684 35.5375 82.3425 33.4835C82.6167 31.4295 81.3735 30.2798 79.915 30.0851ZM78.6717 34.1354L77.1182 33.9281L77.4178 31.6842L78.9712 31.8916C79.4545 31.9561 80.2484 32.0621 80.0987 33.184C79.9489 34.3059 79.155 34.1999 78.6717 34.1354Z" fill="black"/>
<path d="M92.714 33.8152L88.5826 31.9632L86.0896 37.5246L90.221 39.3766C91.5637 39.9785 93.2258 39.655 94.0734 37.7641C94.9211 35.8732 94.0567 34.4171 92.714 33.8152ZM90.3689 37.3438L88.9388 36.7027L89.8648 34.6371L91.2949 35.2781C91.7398 35.4776 92.4707 35.8052 92.0077 36.8381C91.5447 37.8709 90.8138 37.5433 90.3689 37.3438Z" fill="black"/>
<path d="M101.407 41.1264L102.416 39.7073L97.1657 35.9735L93.6337 40.9404L98.8844 44.6742L99.8936 43.2551L96.4877 40.8332L96.8156 40.372L100.222 42.7939L101.079 41.5876L97.6734 39.1657L98.0014 38.7045L101.407 41.1264Z" fill="black"/>
<path d="M108.036 45.1602L103.553 46.9877L105.7 42.6483L104.004 40.825L101.261 46.8246L103.55 49.2855L109.732 46.9836L108.036 45.1602Z" fill="black"/>
<path d="M112.816 55.0142L114.305 54.1112L110.964 48.6023L105.753 51.7628L109.094 57.2718L110.583 56.3687L108.416 52.7954L108.9 52.5019L111.067 56.0753L112.333 55.3077L110.165 51.7343L110.649 51.4409L112.816 55.0142Z" fill="black"/>
<path d="M112.154 59.4409L116.061 57.9568L115.257 55.8406L109.56 58.0049L111.786 63.8652L113.577 63.185L112.154 59.4409Z" fill="black"/>
<path d="M112.736 68.3755C113.191 71.0095 114.4 71.9758 116.485 71.6159C118.562 71.2575 119.368 69.9431 118.914 67.3091C118.458 64.6665 117.267 63.7058 115.182 64.0657C113.089 64.4271 112.28 65.7329 112.736 68.3755ZM114.624 68.0496C114.397 66.7369 114.924 66.4075 115.567 66.2964C116.202 66.1868 116.798 66.3137 117.026 67.6349C117.254 68.9562 116.727 69.2771 116.1 69.3852C115.465 69.4948 114.85 69.3623 114.624 68.0496Z" fill="black"/>
<path d="M119.533 77.921L119.71 73.1356L113.619 72.9112L113.536 75.1734L114.963 75.226L114.87 77.7492C114.819 79.1326 115.758 80.1169 117.116 80.1669C118.473 80.2169 119.482 79.3045 119.533 77.921ZM116.8 77.3847L116.877 75.2965L117.712 75.3273L117.635 77.4155C117.627 77.6417 117.617 77.9201 117.199 77.9047C116.781 77.8893 116.792 77.6109 116.8 77.3847Z" fill="black"/>
<path d="M116.022 88.4938L117.716 88.8958L119.204 82.6268L113.274 81.2199L111.786 87.4888L113.481 87.8908L114.445 83.8245L114.996 83.9551L114.031 88.0215L115.471 88.3631L116.436 84.2968L116.987 84.4274L116.022 88.4938Z" fill="black"/>
<path d="M112.141 96.3883C113.378 96.9486 114.658 96.4864 115.229 95.2253L117.204 90.8631L111.652 88.3488L110.718 90.4109L112.019 91L111.47 92.2135L109.821 92.3937L108.714 94.8366L110.754 94.5751C110.834 95.3474 111.332 96.0219 112.141 96.3883ZM114.525 92.135L113.663 94.0385C113.57 94.2447 113.455 94.4985 113.074 94.3261C112.694 94.1537 112.809 93.8999 112.902 93.6937L113.764 91.7902L114.525 92.135Z" fill="black"/>
<path d="M110.144 96.9224C108.68 95.8564 107.515 96.7315 106.044 98.7516C104.573 100.772 104.098 102.149 105.457 103.138C106.745 104.076 107.755 102.97 109.247 101.083C110.068 100.044 110.189 99.8632 110.379 100.002C110.569 100.14 110.483 100.347 109.858 101.205C109.207 102.099 108.843 102.481 108.583 102.291L107.25 104.121C108.51 105.038 109.764 104.293 111.163 102.371C112.578 100.428 112.887 99.0274 111.803 98.2382C110.656 97.4028 109.67 97.988 107.98 100.161C107.104 101.29 106.958 101.431 106.747 101.277C106.564 101.144 106.611 100.931 107.401 99.8469C108.246 98.6856 108.572 98.5782 108.811 98.7525L110.144 96.9224Z" fill="black"/>
<defs>
<linearGradient id="paint0_linear_190_16403" x1="73.4353" y1="21.0177" x2="73.4353" y2="129.972" gradientUnits="userSpaceOnUse">
<stop stop-color="#9FA6FF"/>
<stop offset="1" stop-color="#7A84FF"/>
</linearGradient>
<linearGradient id="paint1_linear_190_16403" x1="130.159" y1="49.6134" x2="29.8083" y2="110.281" gradientUnits="userSpaceOnUse">
<stop stop-color="#7E87FF"/>
<stop offset="0.932292" stop-color="#9DA4FF"/>
</linearGradient>
</defs>
</svg>
