<svg width="348" height="284" viewBox="0 0 348 284" fill="none" xmlns="http://www.w3.org/2000/svg">
<circle cx="174.142" cy="174.278" r="101.886" transform="rotate(-12.5051 174.142 174.278)" fill="url(#paint0_linear_190_16453)" stroke="url(#paint1_linear_190_16453)" stroke-width="1.63091"/>
<path d="M90.8107 177.085L84.9316 177.55L85.2781 181.93L91.1572 181.465C92.4038 181.366 93.5684 181.732 93.7724 184.309C93.9763 186.887 92.9004 187.429 91.637 187.529L85.7579 187.994L86.1045 192.374L91.9836 191.909C96.0939 191.584 97.8889 189.204 97.4784 184.016C97.0692 178.844 94.9042 176.761 90.8107 177.085Z" fill="black"/>
<path d="M85.4784 170.101L85.1915 174.486L96.9949 175.258L97.2819 170.874L85.4784 170.101Z" fill="black"/>
<path d="M86.7944 158.492L86.0585 162.652L99.7699 169.539L100.506 165.379L86.7944 158.492Z" fill="black"/>
<path d="M98.5196 142.127L92.9789 140.107L91.4739 144.235L97.0146 146.255C98.1894 146.683 99.0968 147.5 98.2112 149.929C97.3257 152.358 96.1216 152.404 94.9309 151.97L89.3902 149.95L87.8852 154.078L93.4259 156.098C97.2997 157.51 99.9212 156.092 101.704 151.202C103.481 146.328 102.377 143.534 98.5196 142.127Z" fill="black"/>
<path d="M104.129 143.289L107.242 138.46L106.014 134.129L110.466 133.461L113.579 128.632L105.577 130.128L103.638 122.222L100.524 127.051L101.753 131.382L97.301 132.05L94.1875 136.878L102.189 135.383L104.129 143.289Z" fill="black"/>
<path d="M118.292 107.616L111.516 113.211L119.048 122.332L125.823 116.737C128.025 114.919 128.892 111.748 126.331 108.647C123.771 105.546 120.494 105.797 118.292 107.616ZM122.414 114.731L120.068 116.668L117.271 113.28L119.616 111.343C120.346 110.741 121.545 109.751 122.944 111.445C124.342 113.139 123.144 114.128 122.414 114.731Z" fill="black"/>
<path d="M138.315 98.8369L136.701 95.8678L125.715 101.841L131.365 112.233L142.351 106.26L140.737 103.291L133.611 107.165L133.086 106.2L140.212 102.326L138.84 99.8019L131.714 103.676L131.189 102.711L138.315 98.8369Z" fill="black"/>
<path d="M142.742 101.243C143.787 104.599 146.614 104.586 151.245 103.144C155.875 101.702 158.211 100.108 157.241 96.9943C156.322 94.0417 153.468 94.5941 148.959 95.803C146.477 96.4697 146.078 96.6114 145.943 96.1758C145.807 95.7402 146.18 95.5178 148.149 94.905C150.198 94.267 151.206 94.0947 151.392 94.6917L155.587 93.3857C154.688 90.4976 151.871 90.2063 147.467 91.5777C143.014 92.964 140.909 94.7874 141.683 97.2721C142.501 99.902 144.715 100.133 149.863 98.7072C152.535 97.9641 152.926 97.9131 153.076 98.3971C153.207 98.8166 152.886 99.0935 150.402 99.867C147.739 100.696 147.108 100.486 146.937 99.9369L142.742 101.243Z" fill="black"/>
<path d="M162.227 88.3224L157.888 89.0121L159.745 100.694L164.084 100.004L162.227 88.3224Z" fill="black"/>
<path d="M172.394 95.2043L175.57 95.1542C175.414 95.9509 174.387 96.2038 172.697 96.2304C170.112 96.2712 169.636 94.9943 169.613 93.5581C169.591 92.1389 170.013 91.0337 172.615 90.9926C174.473 90.9633 175.344 91.5073 175.522 92.1129L180.017 92.042C179.78 88.8177 177.287 87.2008 172.556 87.2755C167.69 87.3523 165.153 89.3528 165.217 93.4585C165.282 97.5811 167.882 99.5175 172.241 99.4487C174.725 99.4095 176.268 98.6753 177.246 97.4938L177.594 99.1952L180.129 99.1552L180.027 92.7178L172.356 92.8388L172.394 95.2043Z" fill="black"/>
<path d="M194.736 89.5943L193.345 96.4333L189.735 88.5775L184.105 87.4328L181.748 99.0244L186.053 99.8998L187.444 93.0607L191.054 100.917L196.684 102.061L199.041 90.4696L194.736 89.5943Z" fill="black"/>
<path d="M213.42 99.6212L214.738 96.5091L203.223 91.6332L198.611 102.526L210.126 107.402L211.443 104.289L203.974 101.127L204.403 100.115L211.872 103.278L212.992 100.633L205.523 97.4699L205.951 96.4585L213.42 99.6212Z" fill="black"/>
<path d="M227.514 109.739C228.991 107.556 228.526 104.956 226.301 103.451L218.603 98.242L211.974 108.039L215.613 110.501L217.166 108.206L219.307 109.655L219.112 112.868L223.422 115.785L223.591 111.798C225.094 111.897 226.548 111.167 227.514 109.739ZM220.159 103.783L223.518 106.056C223.881 106.302 224.329 106.605 223.875 107.277C223.42 107.949 222.972 107.646 222.608 107.4L219.25 105.127L220.159 103.783Z" fill="black"/>
<path d="M228.184 113.97C225.661 116.417 226.949 118.934 230.325 122.415C233.702 125.897 236.178 127.261 238.52 124.99C240.739 122.838 238.958 120.54 235.845 117.062C234.129 115.148 233.823 114.857 234.15 114.539C234.478 114.221 234.845 114.454 236.28 115.934C237.774 117.474 238.383 118.296 237.934 118.732L240.993 121.885C243.164 119.78 242.153 117.135 238.941 113.823C235.694 110.476 233.117 109.42 231.249 111.232C229.272 113.15 230.065 115.229 233.661 119.18C235.53 121.228 235.752 121.554 235.388 121.907C235.073 122.213 234.681 122.052 232.869 120.184C230.928 118.182 230.83 117.523 231.243 117.123L228.184 113.97Z" fill="black"/>
<path d="M148.307 141.879L172.97 162.227L204.676 158.093L184.328 182.756L188.461 214.462L163.798 194.114L132.093 198.247L152.441 173.584L148.307 141.879Z" fill="black"/>
<path d="M209.677 176.871L220.327 185.657L234.018 183.872L225.232 194.522L227.017 208.213L216.367 199.427L202.676 201.212L211.462 190.562L209.677 176.871Z" fill="black"/>
<defs>
<linearGradient id="paint0_linear_190_16453" x1="174.142" y1="71.5765" x2="174.142" y2="276.98" gradientUnits="userSpaceOnUse">
<stop stop-color="#FFE34E"/>
<stop offset="1" stop-color="#FBC53C"/>
</linearGradient>
<linearGradient id="paint1_linear_190_16453" x1="281.08" y1="125.486" x2="91.896" y2="239.858" gradientUnits="userSpaceOnUse">
<stop stop-color="#FCC93E"/>
<stop offset="0.932292" stop-color="#FFE34E"/>
</linearGradient>
</defs>
</svg>
