<svg width="97" height="57" viewBox="0 0 97 57" fill="none" xmlns="http://www.w3.org/2000/svg">
<g filter="url(#filter0_d_204_14521)">
<path d="M38.7119 40.5678C39.4169 41.4181 39.3043 42.6896 38.3811 43.2959C35.9808 44.8723 33.2293 45.8571 30.3537 46.1548C26.8126 46.5214 23.2423 45.8297 20.0942 44.1672C16.9462 42.5047 14.3618 39.9461 12.668 36.8148C10.9741 33.6835 10.2468 30.1203 10.5781 26.5756C10.9093 23.031 12.2843 19.6642 14.529 16.901C16.7737 14.1378 19.7874 12.1023 23.1889 11.0519C26.5905 10.0014 30.2272 9.98327 33.6391 10.9997C36.4097 11.8251 38.931 13.3026 40.9977 15.2964C41.7926 16.0633 41.6677 17.3336 40.8173 18.0386L30.0397 26.974C29.1893 27.679 29.0715 28.9398 29.7765 29.7902L38.7119 40.5678Z" fill="#9DA4FF"/>
</g>
<circle cx="57.5" cy="28.2505" r="3" fill="white"/>
<circle cx="75.5" cy="28.2505" r="3" fill="white"/>
<circle cx="93.5" cy="28.2505" r="3" fill="white"/>
<defs>
<filter id="filter0_d_204_14521" x="0.5" y="0.250488" width="51.0293" height="56" filterUnits="userSpaceOnUse" color-interpolation-filters="sRGB">
<feFlood flood-opacity="0" result="BackgroundImageFix"/>
<feColorMatrix in="SourceAlpha" type="matrix" values="0 0 0 0 0 0 0 0 0 0 0 0 0 0 0 0 0 0 127 0" result="hardAlpha"/>
<feOffset/>
<feGaussianBlur stdDeviation="5"/>
<feComposite in2="hardAlpha" operator="out"/>
<feColorMatrix type="matrix" values="0 0 0 0 0.615686 0 0 0 0 0.643137 0 0 0 0 1 0 0 0 0.6 0"/>
<feBlend mode="normal" in2="BackgroundImageFix" result="effect1_dropShadow_204_14521"/>
<feBlend mode="normal" in="SourceGraphic" in2="effect1_dropShadow_204_14521" result="shape"/>
</filter>
</defs>
</svg>
