<svg width="57" height="61" viewBox="0 0 57 61" fill="none" xmlns="http://www.w3.org/2000/svg">
<g filter="url(#filter0_d_209_17614)">
<path d="M10.8996 10.5894C10.4184 10.5894 10.0996 10.9081 10.0996 11.3894V49.7894C10.0996 50.2706 10.4184 50.5894 10.8996 50.5894H14.0996C14.5809 50.5894 14.8996 50.2706 14.8996 49.7894V36.1894H46.0996C46.5402 36.1894 46.8996 35.83 46.8996 35.3894V11.3894C46.8996 10.9487 46.5402 10.5894 46.0996 10.5894H10.8996ZM14.8996 12.1894H22.0996V19.3894H30.0996V12.1894H38.0996V19.3894H45.2996V27.3894H38.0996V34.5894H30.0996V27.3894H22.0996V34.5894H14.8996V27.3894H22.0996V19.3894H14.8996V12.1894ZM30.0996 27.3894H38.0996V19.3894H30.0996V27.3894Z" fill="white"/>
</g>
<defs>
<filter id="filter0_d_209_17614" x="-1.5" y="0.589355" width="60" height="60" filterUnits="userSpaceOnUse" color-interpolation-filters="sRGB">
<feFlood flood-opacity="0" result="BackgroundImageFix"/>
<feColorMatrix in="SourceAlpha" type="matrix" values="0 0 0 0 0 0 0 0 0 0 0 0 0 0 0 0 0 0 127 0" result="hardAlpha"/>
<feOffset/>
<feGaussianBlur stdDeviation="5"/>
<feComposite in2="hardAlpha" operator="out"/>
<feColorMatrix type="matrix" values="0 0 0 0 1 0 0 0 0 1 0 0 0 0 1 0 0 0 0.6 0"/>
<feBlend mode="normal" in2="BackgroundImageFix" result="effect1_dropShadow_209_17614"/>
<feBlend mode="normal" in="SourceGraphic" in2="effect1_dropShadow_209_17614" result="shape"/>
</filter>
</defs>
</svg>
