<svg width="76" height="35" viewBox="0 0 76 35" fill="none" xmlns="http://www.w3.org/2000/svg">
<g filter="url(#filter0_d_209_17618)">
<path d="M9.66124 24.4805H17.5205C17.3607 23.943 17.2736 23.3909 17.2736 22.8098C17.2736 19.6429 19.8304 17.0861 22.9973 17.0861C26.1643 17.0861 28.7211 19.6429 28.7211 22.8098C28.7211 23.4055 28.634 23.9865 28.4596 24.5241L52.8656 24.6693C52.6767 24.0882 52.5605 23.4636 52.5605 22.8098C52.5605 19.6429 55.1173 17.0861 58.2843 17.0861C61.4513 17.0861 64.0081 19.6429 64.0081 22.8098C64.0081 23.4636 63.8919 24.0737 63.703 24.6548L65.1703 24.2626C66.3324 23.9575 66.7683 23.3909 66.7683 23.3909C66.7683 23.3909 67.9305 21.9382 68.4389 18.902C68.9474 15.8658 66.1145 14.6309 66.1145 14.6309C66.1145 14.6309 63.427 13.861 61.0009 13.0039C60.1728 12.6552 59.5772 10.8248 61.1752 9.99671C62.8459 9.12506 63.2381 9.34297 63.0928 8.97979C62.9476 8.61661 62.4391 8.18079 62.4391 8.18079H62.6134C61.306 8.18079 59.6499 8.3987 58.3424 9.27034C57.0495 10.142 54.7977 10.5487 54.7977 10.5487C53.8389 10.3599 52.793 10.2873 51.471 10.2873C49.2483 10.2873 45.0063 14.4421 41.2582 14.9941C39.297 15.2847 29.738 15.2847 27.9221 14.7762C26.1062 14.2677 22.7794 14.1225 20.2371 14.7036C20.0192 14.7472 12.7701 16.3742 11.114 18.6114C9.79198 20.3692 8.2085 22.5919 8.2085 22.5919L9.66124 24.4805Z" fill="white"/>
<path d="M53.5048 22.8098C53.5048 20.1659 55.6403 18.0303 58.2843 18.0303C60.9283 18.0303 63.0638 20.1659 63.0638 22.8098C63.0638 25.4538 60.9283 27.5893 58.2843 27.5893C55.6403 27.5893 53.5048 25.4538 53.5048 22.8098Z" fill="white"/>
<path d="M18.2178 22.8098C18.2178 20.1659 20.3534 18.0303 22.9973 18.0303C25.6413 18.0303 27.7768 20.1659 27.7768 22.8098C27.7768 25.4538 25.6413 27.5893 22.9973 27.5893C20.3534 27.5893 18.2178 25.4538 18.2178 22.8098Z" fill="white"/>
<path d="M40.1251 14.2242C44.6867 13.6431 48.7253 9.70616 48.7253 9.70616C33.0793 8.25342 28.5177 14.0498 28.5177 14.0498C28.5177 14.0498 35.5635 14.8053 40.1251 14.2242Z" fill="white"/>
</g>
<defs>
<filter id="filter0_d_209_17618" x="0.970354" y="0.942155" width="74.7683" height="33.8858" filterUnits="userSpaceOnUse" color-interpolation-filters="sRGB">
<feFlood flood-opacity="0" result="BackgroundImageFix"/>
<feColorMatrix in="SourceAlpha" type="matrix" values="0 0 0 0 0 0 0 0 0 0 0 0 0 0 0 0 0 0 127 0" result="hardAlpha"/>
<feOffset/>
<feGaussianBlur stdDeviation="3.61932"/>
<feComposite in2="hardAlpha" operator="out"/>
<feColorMatrix type="matrix" values="0 0 0 0 1 0 0 0 0 1 0 0 0 0 1 0 0 0 0.6 0"/>
<feBlend mode="normal" in2="BackgroundImageFix" result="effect1_dropShadow_209_17618"/>
<feBlend mode="normal" in="SourceGraphic" in2="effect1_dropShadow_209_17618" result="shape"/>
</filter>
</defs>
</svg>
