<svg width="304" height="170" viewBox="0 0 304 170" fill="none" xmlns="http://www.w3.org/2000/svg">
<g filter="url(#filter0_d_191_16918)">
<path fill-rule="evenodd" clip-rule="evenodd" d="M43.2575 65.6551C21.3565 65.8561 4.18163 84.5201 5.79805 106.362C7.19828 125.283 22.2571 139.929 40.6073 141.362C39.8015 145.865 38.1636 151.178 36.7516 155.758C35.9045 158.505 35.1388 160.989 34.6828 162.876C33.7745 166.635 39.2089 161.912 46.8836 155.243C52.5441 150.324 59.4232 144.346 65.8751 139.931L244.446 126.716C261.995 125.417 275.074 109.986 273.478 92.461C271.991 76.1352 258.226 63.6818 241.833 63.8323L43.2575 65.6551Z" fill="#9DA4FF"/>
</g>
<path d="M21.2348 110.072C22.4691 110.28 23.9395 110.755 24.7098 111.251L25.3453 110.132C24.555 109.637 23.0471 109.205 21.8562 109.054L21.2348 110.072ZM26.7491 107.765C25.9787 107.269 24.5248 106.734 23.3692 106.501L22.7055 107.482C23.8635 107.754 25.3209 108.35 26.0525 108.868L26.7491 107.765ZM25.4544 111.307C24.4466 112.909 23.2472 114.662 22.3674 115.716L23.4995 116.571C24.465 115.272 25.5493 113.606 26.4256 112.152L25.4544 111.307ZM33.421 108.796L36.6953 108.604C36.4275 109.501 36.0785 110.383 35.7942 111.001L37.0309 111.249C37.5149 110.279 38.0471 108.765 38.4912 107.457L37.4777 107.256L37.2416 107.33L30.1538 107.746C30.3629 107.212 30.5509 106.661 30.699 106.111L29.4646 105.903L38.7287 105.359L38.6596 104.181L30.7532 104.645L30.6746 103.308L36.9039 102.942L36.8395 101.844L30.6102 102.209L30.5352 100.932L37.7428 100.509L37.6748 99.3505L33.6617 99.5861C34.0341 99.1034 34.4217 98.5398 34.7694 97.9784L33.1675 97.6517C32.9208 98.2272 32.4686 99.0551 32.0645 99.6798L27.4524 99.9506C27.1577 99.3668 26.5541 98.6409 25.9611 98.0947L24.7103 98.629C25.1154 99.0459 25.5264 99.5627 25.8552 100.044L21.862 100.279L21.93 101.437L29.0378 101.019L29.1128 102.297L23.0033 102.656L23.0677 103.754L29.1772 103.395L29.2557 104.733L21.4691 105.19L21.5383 106.368L29.265 105.915C28.7727 107.767 27.8364 109.565 26.6266 110.798C26.9577 110.978 27.6001 111.341 27.8737 111.566C28.4939 110.868 29.0836 109.992 29.5676 109.022L31.8836 108.886L31.9352 109.765C31.9891 110.683 31.4637 113.679 26.3653 115.22C26.6424 115.505 27.0734 116.02 27.2507 116.31C31.2028 115.037 32.5655 112.653 32.8146 111.436C33.2455 112.633 34.8777 114.841 38.9505 115.624C39.0927 115.315 39.458 114.712 39.6988 114.378C34.3963 113.467 33.5241 110.553 33.4714 109.655L33.421 108.796ZM52.3576 99.9913L53.8151 99.9057L53.7577 98.9274L58.5095 98.6485L58.4392 97.4506L53.6873 97.7295L53.6147 96.4916L52.1572 96.5772L52.2299 97.815L50.0536 97.9428L50.1239 99.1407L52.3002 99.013L52.3576 99.9913ZM45.749 100.379L47.2065 100.294L47.149 99.3153L49.485 99.1782L49.4147 97.9803L47.0787 98.1174L47.0061 96.8795L45.5486 96.9651L45.6212 98.2029L40.9892 98.4748L41.0595 99.6728L45.6915 99.4009L45.749 100.379ZM46.0918 110.316C45.67 111.663 44.8501 113.054 43.537 113.892L44.6244 114.67C46.0491 113.684 46.8009 112.158 47.2568 110.709L46.0918 110.316ZM48.728 113.587C48.7397 113.787 48.6834 113.85 48.4449 113.884C48.2453 113.896 47.4866 113.941 46.6668 113.969C46.8676 114.318 47.0954 114.785 47.1764 115.141C48.3144 115.074 49.0532 115.031 49.5206 114.803C50.0069 114.554 50.1279 114.226 50.088 113.548L49.8079 108.776L48.4503 108.855L48.728 113.587ZM50.3432 110.728C51.0231 111.73 51.7053 113.112 51.9365 113.98L53.0688 113.473C52.8187 112.626 52.1001 111.306 51.4203 110.304L50.3432 110.728ZM52.792 110.123C54.119 111.227 55.6338 112.801 56.3172 113.863L57.4753 113.114C56.752 112.055 55.2207 110.542 53.8961 109.477L52.792 110.123ZM45.0603 104.006L54.9832 103.423L55.0594 104.721L45.1365 105.304L45.0603 104.006ZM44.9302 101.79L54.8531 101.207L54.927 102.465L45.004 103.047L44.9302 101.79ZM59.1449 107.767L59.0746 106.569L48.3131 107.201C48.5316 106.827 48.7113 106.476 48.8687 106.086L56.5355 105.636L56.2109 100.106L43.4928 100.852L43.8174 106.383L47.2515 106.181C47.073 106.552 46.8744 106.924 46.636 107.299L41.365 107.608L41.4354 108.806L45.6281 108.56C44.5898 109.643 43.1463 110.649 41.2694 111.441C41.6018 111.642 42.0492 112.096 42.2687 112.424C44.6095 111.345 46.3115 109.963 47.4849 108.451L52.7758 108.141C54.266 109.636 56.5877 110.962 58.6652 111.542C58.845 111.19 59.2361 110.687 59.4992 110.391C57.7329 109.994 55.7975 109.105 54.433 108.044L59.1449 107.767ZM63.0499 98.1817L68.1212 97.884L68.3462 101.717L63.2749 102.015L63.0499 98.1817ZM65.5341 105.348C65.5718 104.625 65.5895 103.903 65.5884 103.202L69.8211 102.953L69.4403 96.4643L61.5938 96.9248L61.9746 103.414L64.1509 103.286C64.1634 106.911 63.9233 111.013 61.3345 113.328C61.7068 113.527 62.1941 113.979 62.4125 114.287C64.4069 112.427 65.1836 109.616 65.4529 106.695L68.7273 106.503C68.7785 110.447 68.6679 111.976 68.3319 112.397C68.1628 112.587 68.0054 112.636 67.666 112.656C67.3066 112.677 66.3682 112.732 65.3841 112.69C65.6436 113.015 65.8161 113.566 65.8795 113.963C66.8402 113.947 67.8197 113.909 68.3153 113.82C68.9119 113.745 69.2443 113.605 69.5603 113.186C70.063 112.535 70.1561 110.707 70.1038 105.721C70.0933 105.542 70.0863 105.081 70.0863 105.081L65.5341 105.348ZM73.001 97.7378L71.5635 97.8222L72.208 108.803L73.6456 108.719L73.001 97.7378ZM76.2979 95.5408L77.2296 111.414C77.2519 111.793 77.0992 111.922 76.7398 111.943C76.3616 111.985 75.105 112.079 73.7039 112.101C73.9681 112.507 74.2275 113.172 74.3308 113.567C76.1477 113.46 77.2646 113.375 77.9094 113.097C78.5131 112.801 78.7657 112.325 78.7071 111.327L77.7754 95.4541L76.2979 95.5408ZM88.6978 94.4925C88.8161 97.5307 89.5054 107.227 81.4658 111.906C81.9437 112.199 82.4487 112.61 82.7317 112.994C87.4509 110.112 89.3048 105.516 89.9888 101.469C91.1652 105.126 93.5909 109.932 98.7195 111.975C98.9145 111.543 99.3244 111.018 99.7238 110.654C92.4919 107.933 90.8041 99.6579 90.3652 97.2996C90.3959 96.1157 90.3572 95.1163 90.335 94.3964L88.6978 94.4925ZM107.373 102.051L103.18 102.297L102.935 98.1245L107.128 97.8784L107.373 102.051ZM103.539 108.407L103.257 103.615L107.45 103.369L107.731 108.161L103.539 108.407ZM104.344 93.4539C104.259 94.4005 103.978 95.7593 103.735 96.7352L101.499 96.8664L102.352 111.401L103.71 111.322L103.617 109.744L109.168 109.419L108.407 96.461L105.093 96.6555C105.382 95.7771 105.677 94.6579 105.959 93.6596L104.344 93.4539ZM118.167 95.828L112.197 96.1784C112.481 95.2201 112.705 94.2453 112.887 93.253L111.449 92.9968C110.971 95.7695 110.055 98.5881 108.82 100.424C109.151 100.604 109.813 100.966 110.087 101.191C110.731 100.211 111.278 98.957 111.759 97.5865L116.83 97.2888C117.037 105.25 116.916 108.303 116.298 109.04C116.113 109.311 115.896 109.364 115.497 109.388C115.037 109.415 113.84 109.485 112.535 109.441C112.839 109.844 113.054 110.433 113.119 110.87C114.241 110.864 115.381 110.837 116.076 110.716C116.751 110.616 117.199 110.41 117.606 109.825C118.347 108.8 118.426 105.71 118.211 96.5867L118.167 95.828ZM115.54 104.998C114.831 103.857 113.341 102.021 112.14 100.669L111.022 101.416C112.204 102.789 113.658 104.687 114.327 105.85L115.54 104.998ZM123.61 105.966L127.284 105.751L127.215 104.573L123.541 104.788L123.61 105.966ZM125.466 96.9623L124.308 97.0302L124.158 94.4746L125.316 94.4067L125.466 96.9623ZM127.835 101.491C127.796 101.514 127.717 101.518 127.537 101.529L126.798 101.572C126.559 101.586 126.537 101.567 126.522 101.308L126.339 98.1932L127.637 98.117L127.835 101.491ZM122.909 108.011L122.627 103.219C122.835 103.347 123.068 103.554 123.196 103.687C124.369 102.516 124.561 101.002 124.491 99.8043L124.403 98.3069L125.501 98.2424L125.685 101.377C125.74 102.315 125.991 102.501 126.77 102.455L127.748 102.398L127.888 102.39L128.2 107.701L122.909 108.011ZM123.584 98.3549L123.672 99.8523C123.729 100.831 123.62 102.039 122.618 103.06L122.346 98.4276L123.584 98.3549ZM120.604 94.6832L123.1 94.5367L123.25 97.0923L121.113 97.2177L121.905 110.715L123.063 110.647L122.98 109.229L128.271 108.918L128.338 110.056L129.516 109.987L128.74 96.7701L126.544 96.899L126.394 94.3434L128.81 94.2016L128.735 92.9238L120.529 93.4054L120.604 94.6832ZM137.28 103.682L137.505 107.515L132.194 107.827L131.969 103.993L137.28 103.682ZM130.95 110.184L132.327 110.103L132.274 109.184L137.584 108.873L137.636 109.751L139.074 109.667L138.638 102.24L130.512 102.716L130.95 110.184ZM135.304 99.3699L135.12 96.2353L138.474 96.0384L138.395 94.7008L135.041 94.8976L134.855 91.7231L133.457 91.8051L133.644 94.9797L131.827 95.0863C131.963 94.337 132.078 93.569 132.172 92.7821L130.782 92.6433C130.601 94.6774 130.145 96.8078 129.407 98.2335C129.755 98.3533 130.392 98.6365 130.684 98.8197C130.985 98.1609 131.278 97.3423 131.506 96.4474L133.722 96.3174L133.906 99.452L129.653 99.7016L129.732 101.039L139.196 100.484L139.117 99.1461L135.304 99.3699ZM143.576 104.795L147.249 104.579L147.18 103.401L143.507 103.617L143.576 104.795ZM145.431 95.7903L144.273 95.8583L144.123 93.3027L145.281 93.2347L145.431 95.7903ZM147.801 100.319C147.762 100.342 147.682 100.346 147.502 100.357L146.764 100.4C146.524 100.414 146.503 100.395 146.488 100.136L146.305 97.0213L147.603 96.9451L147.801 100.319ZM142.874 106.839L142.593 102.047C142.801 102.175 143.033 102.382 143.161 102.515C144.335 101.344 144.527 99.8303 144.456 98.6324L144.368 97.1349L145.466 97.0705L145.65 100.205C145.705 101.143 145.957 101.329 146.735 101.283L147.714 101.226L147.854 101.218L148.165 106.529L142.874 106.839ZM143.55 97.183L143.638 98.6804C143.695 99.6587 143.586 100.867 142.584 101.888L142.312 97.2557L143.55 97.183ZM140.569 93.5113L143.065 93.3648L143.215 95.9204L141.079 96.0458L141.871 109.543L143.029 109.475L142.946 108.057L148.237 107.747L148.304 108.885L149.482 108.815L148.706 95.5982L146.509 95.7271L146.359 93.1715L148.775 93.0297L148.7 91.7519L140.494 92.2335L140.569 93.5113ZM157.245 102.51L157.47 106.343L152.16 106.655L151.935 102.821L157.245 102.51ZM150.915 109.012L152.293 108.931L152.239 108.012L157.55 107.701L157.602 108.579L159.039 108.495L158.603 101.068L150.477 101.545L150.915 109.012ZM155.269 98.198L155.085 95.0634L158.44 94.8665L158.361 93.5288L155.007 93.7257L154.82 90.5512L153.423 90.6332L153.609 93.8078L151.792 93.9144C151.929 93.1651 152.044 92.3971 152.138 91.6102L150.747 91.4714C150.566 93.5055 150.11 95.6359 149.373 97.0616C149.72 97.1814 150.358 97.4645 150.649 97.6478C150.951 96.989 151.244 96.1704 151.472 95.2755L153.688 95.1455L153.872 98.2801L149.619 98.5297L149.698 99.8674L159.161 99.3119L159.083 97.9742L155.269 98.198ZM161.938 102.935C161.832 104.544 161.636 106.319 161.27 107.583C161.554 107.646 162.143 107.792 162.391 107.917C162.718 106.656 162.989 104.797 163.087 103.048L161.938 102.935ZM164.002 102.934C164.301 104.279 164.623 106.003 164.732 107.179L165.834 106.834C165.706 105.679 165.385 103.975 165.028 102.674L164.002 102.934ZM166.136 102.429C166.647 103.621 167.22 105.19 167.481 106.236L168.497 105.796C168.238 104.789 167.626 103.243 167.094 102.032L166.136 102.429ZM165.688 97.867C165.941 98.4331 166.239 99.0568 166.496 99.6828L163.09 100.364C164.556 98.3742 165.954 95.908 167.073 93.4783L165.874 92.8474C165.51 93.8104 165.027 94.8004 164.578 95.6882L162.494 96.011C163.503 94.4291 164.466 92.4092 165.194 90.4832L163.905 90.018C163.253 92.22 162.029 94.5757 161.645 95.1993C161.28 95.8217 160.966 96.2609 160.651 96.3595C160.811 96.6907 161.049 97.3379 161.145 97.6127C161.396 97.4577 161.81 97.3333 163.872 96.9718C163.238 98.1109 162.669 99.0058 162.372 99.4039C161.838 100.197 161.428 100.721 161.033 100.825C161.214 101.175 161.471 101.801 161.529 102.098C161.896 101.876 162.487 101.701 166.898 100.741C166.998 101.076 167.118 101.409 167.194 101.685L168.286 101.18C167.991 100.236 167.318 98.6728 166.725 97.4455L165.688 97.867ZM173.168 102.777C172.749 102.802 172.68 102.645 172.649 102.126L172.535 100.17L176.647 99.9283L176.578 98.7504L173.623 98.9238L174.323 98.5622C174.118 98.1335 173.713 97.3759 173.339 96.8168L176.694 96.6199L176.625 95.442L174.927 95.5416C175.197 94.6643 175.489 93.5052 175.731 92.5093L174.634 92.2531C174.511 93.222 174.194 94.643 173.889 95.6025L170.096 95.8252L170.165 97.0032L173.22 96.8238L172.322 97.2371C172.632 97.7398 172.993 98.4199 173.204 98.9484L170.489 99.1078L170.558 100.286L171.297 100.242L171.41 102.179C171.488 103.497 171.815 103.958 173.133 103.881L175.689 103.731C176.188 103.702 176.706 103.651 176.961 103.556C176.903 103.259 176.836 102.802 176.776 102.465C176.482 102.563 175.924 102.615 175.604 102.634L173.168 102.777ZM170.598 92.7705C171.128 93.6209 171.618 94.7942 171.803 95.5647L172.742 95.169C172.576 94.3974 172.048 93.2464 171.497 92.3972L170.598 92.7705ZM178.096 90.1266L167.933 90.7231L168.949 108.033L170.287 107.955L169.348 91.9623L176.815 91.5241L177.654 105.819C177.671 106.099 177.596 106.184 177.337 106.219C177.098 106.233 176.3 106.3 175.459 106.309C175.64 106.659 175.855 107.247 175.916 107.604C177.134 107.533 177.951 107.465 178.416 107.197C178.921 106.927 179.06 106.558 179.012 105.74L178.096 90.1266ZM194.934 95.409L184.911 95.9973L184.805 94.1805L194.827 93.5922L194.934 95.409ZM195.108 98.364L185.085 98.9523L184.977 97.1154L195 96.5271L195.108 98.364ZM195.282 101.339L185.259 101.927L185.152 100.09L195.174 99.502L195.282 101.339ZM183.218 93.0916L183.812 103.214L196.93 102.444L196.336 92.3216L189.847 92.7025C190.014 92.1317 190.176 91.4811 190.319 90.8516L197.746 90.4157L197.667 89.058L181.115 90.0295L181.195 91.3872L188.622 90.9512C188.557 91.5561 188.436 92.2243 188.309 92.7927L183.218 93.0916ZM187.439 103.222C186.115 104.221 183.461 105.419 181.357 106.103C181.716 106.402 182.185 106.896 182.444 107.201C184.545 106.477 187.158 105.262 188.834 104.121L187.439 103.222ZM191.735 104.051C194.118 104.713 196.535 105.613 197.998 106.308L199.316 105.209C197.713 104.522 195.117 103.652 192.736 103.011L191.735 104.051ZM202.686 98.46L202.601 97.0026L205.116 96.8549L205.202 98.3124L202.686 98.46ZM202.459 94.5867L204.974 94.4391L205.059 95.8766L202.543 96.0242L202.459 94.5867ZM208.928 94.207L209.012 95.6445L206.397 95.7981L206.312 94.3605L208.928 94.207ZM209.155 98.0803L206.54 98.2339L206.454 96.7764L209.069 96.6229L209.155 98.0803ZM214.05 91.7026C214.008 90.3026 213.921 88.8252 213.833 87.3278L212.435 87.4098C212.524 88.9272 212.61 90.3847 212.652 91.7846L210.276 91.9241L210.358 93.3217L212.694 93.1846C212.735 96.9486 212.404 100.194 210.806 102.651L210.8 102.552C209.472 102.79 208.122 103.009 206.831 103.205L206.739 101.628L210.652 101.398L210.585 100.26L206.672 100.49L206.6 99.2721L210.474 99.0447L210.126 93.1149L206.252 93.3423L206.179 92.0845L210.411 91.836L210.343 90.678L206.111 90.9264L206.025 89.469C207.473 89.2237 208.82 88.9643 209.884 88.6614L209.079 87.5667C207.049 88.1467 203.477 88.717 200.531 89.0502C200.708 89.3403 200.876 89.8112 200.955 90.1272C202.131 90.0181 203.424 89.8621 204.696 89.6872L204.773 91.005L200.46 91.2581L200.528 92.4161L204.841 92.163L204.915 93.4208L201.181 93.64L201.529 99.5698L205.263 99.3506L205.334 100.569L201.561 100.79L201.628 101.928L205.401 101.707L205.502 103.424C203.874 103.679 202.385 103.907 201.193 104.077L201.489 105.362C203.711 104.991 206.785 104.47 209.799 103.933C209.534 104.189 209.268 104.445 208.962 104.683C209.335 104.902 209.883 105.37 210.122 105.677C213.481 102.835 214.144 98.4286 214.072 93.1037L216.927 92.9361C217.153 100.195 217.068 102.845 216.643 103.451C216.458 103.722 216.282 103.793 215.943 103.812C215.563 103.835 214.684 103.866 213.721 103.843C213.962 104.209 214.158 104.819 214.222 105.216C215.144 105.222 216.083 105.187 216.638 105.074C217.233 104.979 217.623 104.796 217.932 104.257C218.562 103.378 218.578 100.592 218.307 92.214C218.295 92.0143 218.282 91.4541 218.282 91.4541L214.05 91.7026ZM221.444 104.351L239.253 103.306L239.191 102.248L221.381 103.293L221.444 104.351ZM235.3 98.7695L230.668 99.0414L230.609 98.0232L235.241 97.7513L235.3 98.7695ZM235.412 100.666L230.78 100.938L230.718 99.88L235.35 99.6081L235.412 100.666ZM224.908 100.221L229.34 99.9608L229.402 101.019L224.97 101.279L224.908 100.221ZM224.799 98.3642L229.231 98.104L229.291 99.1223L224.858 99.3824L224.799 98.3642ZM223.331 97.5889L223.602 102.221L236.959 101.437L236.688 96.8049L223.331 97.5889ZM230.191 90.2342L234.764 89.9659L234.828 91.064L230.256 91.3323L230.191 90.2342ZM230.077 88.2776L234.649 88.0092L234.708 89.0275L230.136 89.2958L230.077 88.2776ZM230.486 95.2456L230.425 94.2074L237.253 93.8066L237.198 92.8682L230.37 93.269L230.31 92.2508L236.359 91.8957L236.241 89.8791L238.397 89.7526L238.342 88.8142L236.186 88.9408L236.072 87.0041L230.023 87.3592L229.95 86.1213L228.473 86.208L228.545 87.4459L222.615 87.794L222.669 88.7124L228.599 88.3643L228.659 89.3826L220.633 89.8537L220.688 90.7921L228.714 90.3209L228.778 91.4191L222.729 91.7741L222.783 92.6926L228.832 92.3375L228.892 93.3557L222.363 93.7389L222.418 94.6773L228.947 94.2941L229.008 95.3323L220.942 95.8058L221.003 96.844L238.812 95.7986L238.751 94.7604L230.486 95.2456ZM248.856 96.9321L250.493 96.836C249.778 93.8728 254.514 92.9738 254.337 89.9589C254.202 87.6629 252.321 86.3308 249.506 86.4961C247.329 86.6238 245.826 87.6336 244.59 89.1086L245.727 90.0436C246.774 88.7601 248.036 88.0849 249.394 88.0052C251.43 87.8857 252.487 88.8254 252.568 90.203C252.702 92.4791 248.042 93.6541 248.856 96.9321ZM248.294 100.331C248.35 101.289 249.125 101.865 250.004 101.813C250.882 101.762 251.565 101.101 251.509 100.142C251.452 99.1838 250.698 98.627 249.82 98.6786C248.941 98.7302 248.238 99.3725 248.294 100.331Z" fill="#06102B"/>
<path fill-rule="evenodd" clip-rule="evenodd" d="M239.758 28.6609C237.943 23.1565 238.164 17.755 240.853 13.4011C247.178 3.1613 264.761 2.59401 280.124 12.1341C295.488 21.6741 302.815 37.7089 296.49 47.9487C290.164 58.1886 272.582 58.7559 257.219 49.2158C251.18 45.4662 246.383 40.7133 243.169 35.7033C239.232 35.9265 235.766 36.0584 234.094 35.8114C231.295 35.3978 234.834 32.286 239.758 28.6609Z" fill="#151F3F"/>
<path d="M240.853 13.4011L240.533 13.2035L240.853 13.4011ZM239.758 28.6609L240.115 28.5431L240.2 28.8021L239.981 28.9638L239.758 28.6609ZM280.124 12.1341L280.323 11.8146L280.124 12.1341ZM257.219 49.2158L257.02 49.5353L257.219 49.2158ZM243.169 35.7033L243.147 35.3279L243.367 35.3154L243.485 35.5002L243.169 35.7033ZM241.173 13.5988C238.557 17.8343 238.325 23.1143 240.115 28.5431L239.401 28.7787C237.56 23.1986 237.771 17.6757 240.533 13.2035L241.173 13.5988ZM279.926 12.4536C272.298 7.71718 264.134 5.49946 257.111 5.72604C250.086 5.95272 244.249 8.61954 241.173 13.5988L240.533 13.2035C243.783 7.94289 249.9 5.20614 257.087 4.97424C264.278 4.74223 272.587 7.0109 280.323 11.8146L279.926 12.4536ZM296.17 47.7511C299.245 42.7716 299.026 36.3434 296.098 29.9353C293.171 23.5303 287.553 17.19 279.926 12.4536L280.323 11.8146C288.058 16.6182 293.786 23.0654 296.782 29.6227C299.777 36.177 300.059 42.8861 296.81 48.1464L296.17 47.7511ZM257.417 48.8963C265.045 53.6327 273.209 55.8504 280.231 55.6238C287.257 55.3972 293.094 52.7303 296.17 47.7511L296.81 48.1464C293.56 53.407 287.443 56.1437 280.256 56.3756C273.065 56.6076 264.756 54.339 257.02 49.5353L257.417 48.8963ZM243.485 35.5002C246.667 40.4596 251.422 45.174 257.417 48.8963L257.02 49.5353C250.938 45.7585 246.099 40.9671 242.852 35.9064L243.485 35.5002ZM234.149 35.4394C235.774 35.6794 239.194 35.552 243.147 35.3279L243.19 36.0788C239.271 36.301 235.758 36.4374 234.04 36.1835L234.149 35.4394ZM239.981 28.9638C237.516 30.7787 235.431 32.4417 234.31 33.6916C234.031 34.002 233.822 34.2771 233.682 34.5143C233.539 34.7565 233.486 34.9299 233.482 35.0434C233.478 35.1335 233.503 35.1883 233.57 35.2427C233.656 35.3129 233.83 35.3921 234.149 35.4394L234.04 36.1835C233.659 36.1273 233.331 36.0188 233.094 35.8256C232.838 35.6164 232.718 35.332 232.73 35.0155C232.741 34.7224 232.862 34.4221 233.034 34.1318C233.208 33.8365 233.453 33.5204 233.75 33.1894C234.93 31.8736 237.076 30.1682 239.535 28.3581L239.981 28.9638Z" fill="url(#paint0_linear_191_16918)"/>
<path d="M266.995 34.0261C269.215 32.0029 273.924 37.6847 277.048 34.0023C279.267 31.3869 277.6 28.4336 273.711 25.1343C269.874 21.8787 266.293 20.3792 263.052 24.1991L266.149 26.827C267.609 25.1063 269.166 25.747 271.679 27.8785C273.898 29.7618 274.345 30.9099 273.658 31.7187C271.79 33.9212 267.411 27.572 264.053 31.5296L266.995 34.0261ZM262.841 32.9578L260.885 35.2636L263.827 37.76L265.784 35.4543L262.841 32.9578Z" fill="white"/>
<path d="M195.543 15.0545C195.693 14.8486 196.001 14.8486 196.151 15.0545L198.122 17.7565C198.392 18.1267 198.86 18.2968 199.305 18.1868L202.552 17.3842C202.799 17.323 203.034 17.5205 203.017 17.7748L202.791 21.1119C202.759 21.5691 203.008 21.9997 203.42 22.2014L206.423 23.6737C206.652 23.7859 206.705 24.0884 206.528 24.2721L204.21 26.6829C203.892 27.0132 203.806 27.5028 203.991 27.9218L205.346 30.9802C205.449 31.2132 205.295 31.4793 205.042 31.5064L201.716 31.8628C201.26 31.9116 200.879 32.2312 200.752 32.6715L199.824 35.8848C199.753 36.1297 199.464 36.2347 199.253 36.0926L196.476 34.2278C196.096 33.9724 195.598 33.9724 195.218 34.2278L192.441 36.0926C192.23 36.2347 191.941 36.1297 191.87 35.8848L190.942 32.6715C190.815 32.2312 190.434 31.9116 189.978 31.8628L186.652 31.5064C186.399 31.4793 186.245 31.2132 186.349 30.9802L187.703 27.9218C187.888 27.5028 187.802 27.0132 187.484 26.6829L185.166 24.2721C184.989 24.0884 185.042 23.7859 185.271 23.6737L188.275 22.2014C188.686 21.9997 188.935 21.5691 188.904 21.1119L188.677 17.7748C188.66 17.5205 188.895 17.323 189.142 17.3842L192.39 18.1868C192.834 18.2968 193.302 18.1267 193.572 17.7565L195.543 15.0545Z" stroke="white" stroke-width="0.752193"/>
<path d="M52.4748 30.9339C51.9765 24.3578 56.4148 18.4254 62.8641 17.0472L134.489 1.74117C145.11 -0.528505 155.303 7.06487 156.168 17.8911C156.959 27.789 149.576 36.4539 139.678 37.2446L66.6686 43.0777C59.3907 43.6591 53.0265 38.2142 52.4748 30.9339Z" fill="#151F3F" stroke="url(#paint1_linear_191_16918)" stroke-width="0.752193"/>
<defs>
<filter id="filter0_d_191_16918" x="0.73076" y="58.8685" width="277.841" height="110.302" filterUnits="userSpaceOnUse" color-interpolation-filters="sRGB">
<feFlood flood-opacity="0" result="BackgroundImageFix"/>
<feColorMatrix in="SourceAlpha" type="matrix" values="0 0 0 0 0 0 0 0 0 0 0 0 0 0 0 0 0 0 127 0" result="hardAlpha"/>
<feOffset/>
<feGaussianBlur stdDeviation="2.4813"/>
<feComposite in2="hardAlpha" operator="out"/>
<feColorMatrix type="matrix" values="0 0 0 0 0.615686 0 0 0 0 0.643137 0 0 0 0 1 0 0 0 0.6 0"/>
<feBlend mode="normal" in2="BackgroundImageFix" result="effect1_dropShadow_191_16918"/>
<feBlend mode="normal" in="SourceGraphic" in2="effect1_dropShadow_191_16918" result="shape"/>
</filter>
<linearGradient id="paint0_linear_191_16918" x1="300.371" y1="14.3547" x2="228.214" y2="21.6318" gradientUnits="userSpaceOnUse">
<stop stop-color="#313A65"/>
<stop offset="1" stop-color="#313A65" stop-opacity="0"/>
</linearGradient>
<linearGradient id="paint1_linear_191_16918" x1="53.8512" y1="7.63272" x2="153.691" y2="47.0762" gradientUnits="userSpaceOnUse">
<stop stop-color="#313A65"/>
<stop offset="1" stop-color="#313A65" stop-opacity="0"/>
</linearGradient>
</defs>
</svg>
