<svg width="337" height="171" viewBox="0 0 337 171" fill="none" xmlns="http://www.w3.org/2000/svg">
<path fill-rule="evenodd" clip-rule="evenodd" d="M89.4924 138.289C93.3168 130.694 94.1558 122.812 91.1783 115.921C84.1755 99.7136 58.7133 95.1237 34.3069 105.669C9.9005 116.215 -4.20787 137.902 2.79497 154.109C9.7978 170.317 35.26 174.907 59.6664 164.361C69.2591 160.216 77.2609 154.35 83.0154 147.772C88.6951 148.94 93.7103 149.873 96.196 149.873C100.359 149.873 95.8773 144.602 89.4924 138.289Z" fill="#151F3F"/>
<path d="M91.1783 115.921L90.8331 116.07L91.1783 115.921ZM89.4924 138.289L89.1565 138.12L89.0334 138.364L89.2279 138.556L89.4924 138.289ZM34.3069 105.669L34.4561 106.014L34.3069 105.669ZM2.79497 154.109L2.44972 154.259L2.79497 154.109ZM59.6664 164.361L59.8156 164.706L59.6664 164.361ZM83.0154 147.772L83.0911 147.404L82.8765 147.36L82.7323 147.525L83.0154 147.772ZM90.8331 116.07C93.7552 122.833 92.945 130.596 89.1565 138.12L89.8283 138.458C93.6886 130.792 94.5564 122.791 91.5236 115.772L90.8331 116.07ZM34.4561 106.014C46.6009 100.767 58.993 99.2926 69.2022 101.133C79.4147 102.974 87.3973 108.118 90.8331 116.07L91.5236 115.772C87.9565 107.516 79.7066 102.262 69.3356 100.393C58.9615 98.5226 46.4193 100.026 34.1577 105.324L34.4561 106.014ZM3.14021 153.96C-0.295535 146.009 1.42907 136.67 7.08773 127.971C12.7446 119.275 22.3112 111.262 34.4561 106.014L34.1577 105.324C21.8961 110.622 12.2054 118.725 6.45721 127.561C0.710789 136.394 -1.11737 146.003 2.44972 154.259L3.14021 153.96ZM59.5172 164.016C47.3724 169.263 34.9803 170.738 24.7711 168.898C14.5586 167.057 6.57596 161.912 3.14021 153.96L2.44972 154.259C6.01681 162.514 14.2667 167.768 24.6376 169.638C35.0118 171.508 47.554 170.004 59.8156 164.706L59.5172 164.016ZM82.7323 147.525C77.0175 154.058 69.0626 159.892 59.5172 164.016L59.8156 164.706C69.4555 160.541 77.5044 154.643 83.2984 148.02L82.7323 147.525ZM96.196 149.497C93.7578 149.497 88.7873 148.575 83.0911 147.404L82.9397 148.141C88.6028 149.305 93.6628 150.25 96.196 150.25V149.497ZM89.2279 138.556C92.4233 141.716 95.1126 144.586 96.4863 146.656C96.8282 147.172 97.0811 147.626 97.2398 148.015C97.4008 148.409 97.4518 148.703 97.429 148.91C97.4087 149.093 97.3313 149.217 97.173 149.311C96.9931 149.418 96.6861 149.497 96.196 149.497V150.25C96.7467 150.25 97.2104 150.164 97.5572 149.958C97.9258 149.739 98.1314 149.402 98.1766 148.992C98.2193 148.606 98.1183 148.176 97.9361 147.73C97.7518 147.279 97.4703 146.779 97.1131 146.24C95.6904 144.097 92.9463 141.175 89.7568 138.021L89.2279 138.556Z" fill="url(#paint0_linear_191_16931)"/>
<path d="M37.0065 127.388L32.6334 130.583L41.3032 142.246L45.482 139.193L37.0065 127.388ZM42.7764 144.263L45.1547 147.518L49.3092 144.483L46.9308 141.228L42.7764 144.263ZM47.5901 119.656L43.217 122.851L51.8868 134.514L56.0656 131.462L47.5901 119.656ZM53.3599 136.531L55.7383 139.786L59.8927 136.751L57.5144 133.496L53.3599 136.531Z" fill="white"/>
<mask id="path-4-inside-1_191_16931" fill="white">
<path fill-rule="evenodd" clip-rule="evenodd" d="M72.6652 54.868C72.4717 56.4 72.9007 57.8671 73.7551 59.0152C74.1281 59.5165 73.9473 60.37 73.4035 60.6776C71.8787 61.5402 70.7663 63.0871 70.5299 64.9587C70.3258 66.5749 70.8145 68.1189 71.7645 69.2923C72.1681 69.7908 72.008 70.6987 71.4585 71.0296C70.0035 71.9057 68.9497 73.4159 68.7204 75.2317C68.323 78.3782 70.5516 81.2511 73.6981 81.6485C76.8446 82.0459 79.7175 79.8173 80.1149 76.6708C80.319 75.0547 79.8304 73.5107 78.8804 72.3373C78.4768 71.8388 78.6369 70.9308 79.1864 70.6C80.6414 69.7238 81.6951 68.2137 81.9245 66.3979C82.118 64.8659 81.6889 63.3988 80.8346 62.2506C80.4616 61.7494 80.6424 60.8959 81.1862 60.5883C82.711 59.7257 83.8233 58.1788 84.0597 56.3071C84.4571 53.1606 82.2285 50.2877 79.082 49.8903C75.9355 49.4929 73.0626 51.7215 72.6652 54.868Z"/>
</mask>
<path d="M81.1862 60.5883L80.8158 59.9336L81.1862 60.5883ZM78.8804 72.3373L78.2958 72.8106L78.8804 72.3373ZM79.1864 70.6L78.7983 69.9556L79.1864 70.6ZM71.7645 69.2923L72.3491 68.819L71.7645 69.2923ZM71.4585 71.0296L71.8465 71.674L71.4585 71.0296ZM73.7551 59.0152L74.3586 58.5662L73.7551 59.0152ZM74.3586 58.5662C73.6155 57.5676 73.2433 56.2939 73.4115 54.9623L71.9189 54.7738C71.7001 56.5061 72.186 58.1666 73.1517 59.4643L74.3586 58.5662ZM71.2762 65.053C71.4816 63.427 72.4469 62.0829 73.7738 61.3323L73.0331 60.0229C71.3104 60.9974 70.0511 62.7471 69.7837 64.8645L71.2762 65.053ZM72.3491 68.819C71.5227 67.7982 71.0988 66.4576 71.2762 65.053L69.7837 64.8645C69.5528 66.6922 70.1063 68.4395 71.1799 69.7656L72.3491 68.819ZM69.4667 75.3259C69.6659 73.7483 70.5804 72.4364 71.8465 71.674L71.0705 70.3852C69.4266 71.3751 68.2336 73.0834 67.9741 75.1374L69.4667 75.3259ZM73.7924 80.9023C71.058 80.5569 69.1213 78.0603 69.4667 75.3259L67.9741 75.1374C67.5247 78.6961 70.0452 81.9453 73.6038 82.3948L73.7924 80.9023ZM79.3687 76.5766C79.0233 79.3109 76.5267 81.2476 73.7924 80.9023L73.6038 82.3948C77.1625 82.8442 80.4117 80.3237 80.8612 76.7651L79.3687 76.5766ZM78.2958 72.8106C79.1222 73.8313 79.5461 75.172 79.3687 76.5766L80.8612 76.7651C81.092 74.9373 80.5386 73.19 79.465 71.864L78.2958 72.8106ZM81.1782 66.3036C80.979 67.8812 80.0645 69.1932 78.7983 69.9556L79.5744 71.2444C81.2183 70.2545 82.4113 68.5462 82.6707 66.4921L81.1782 66.3036ZM80.2311 62.6997C80.9742 63.6982 81.3464 64.972 81.1782 66.3036L82.6707 66.4921C82.8895 64.7598 82.4037 63.0993 81.438 61.8016L80.2311 62.6997ZM83.3135 56.2129C83.1081 57.8389 82.1428 59.1829 80.8158 59.9336L81.5566 61.243C83.2792 60.2685 84.5386 58.5187 84.806 56.4014L83.3135 56.2129ZM78.9878 50.6366C81.7221 50.9819 83.6588 53.4785 83.3135 56.2129L84.806 56.4014C85.2555 52.8427 82.7349 49.5935 79.1763 49.144L78.9878 50.6366ZM73.4115 54.9623C73.7568 52.2279 76.2534 50.2912 78.9878 50.6366L79.1763 49.144C75.6176 48.6946 72.3684 51.2151 71.9189 54.7738L73.4115 54.9623ZM81.438 61.8016C81.4076 61.7607 81.3703 61.6548 81.4025 61.5026C81.4347 61.3504 81.5118 61.2683 81.5566 61.243L80.8158 59.9336C80.3168 60.2159 80.0316 60.7144 79.9307 61.1911C79.8298 61.6679 79.8885 62.2393 80.2311 62.6997L81.438 61.8016ZM79.465 71.864C79.4325 71.8238 79.3864 71.7088 79.4168 71.5363C79.4472 71.3637 79.5298 71.2712 79.5744 71.2444L78.7983 69.9556C78.2934 70.2596 78.0213 70.7865 77.9352 71.2752C77.8491 71.764 77.9247 72.3523 78.2958 72.8106L79.465 71.864ZM71.1799 69.7656C71.2124 69.8058 71.2585 69.9207 71.2281 70.0933C71.1977 70.2658 71.115 70.3584 71.0705 70.3852L71.8465 71.674C72.3514 71.3699 72.6235 70.8431 72.7097 70.3543C72.7958 69.8656 72.7201 69.2773 72.3491 68.819L71.1799 69.7656ZM73.1517 59.4643C73.1821 59.5052 73.2194 59.6111 73.1872 59.7633C73.155 59.9155 73.0779 59.9976 73.0331 60.0229L73.7738 61.3323C74.2729 61.05 74.5581 60.5515 74.659 60.0748C74.7599 59.598 74.7011 59.0265 74.3586 58.5662L73.1517 59.4643Z" fill="white" mask="url(#path-4-inside-1_191_16931)"/>
<g filter="url(#filter0_d_191_16931)">
<path fill-rule="evenodd" clip-rule="evenodd" d="M284.616 26.1892C304.145 23.4017 321.948 37.746 323.378 57.4218C324.617 74.4732 313.073 89.5023 296.87 93.1118C298.184 97.0094 300.341 101.513 302.202 105.397C303.321 107.732 304.332 109.843 304.988 111.463C306.294 114.69 300.815 111.2 293.077 106.271C287.37 102.636 280.433 98.2184 274.085 95.1358L129.408 105.65C113.588 106.8 99.8933 94.7701 98.9941 78.9345C98.1578 64.2082 108.734 51.2928 123.336 49.2087L284.616 26.1892Z" fill="#55FFAD"/>
</g>
<path d="M121.802 77.5312C121.03 77.0046 119.525 76.4301 118.316 76.1204L117.619 77.2979C118.856 77.6646 120.37 78.3184 121.123 78.8475L121.802 77.5312ZM120.806 88.3841C121.426 86.4502 122.11 83.9034 122.581 81.7465L121.312 81.1219C120.782 83.4476 119.974 86.1311 119.375 87.7598L120.806 88.3841ZM117.798 71.892C118.979 72.306 120.465 73.0442 121.183 73.6181L121.907 72.3363C121.149 71.7675 119.694 71.1061 118.517 70.7318L117.798 71.892ZM126.395 72.7525L130.661 72.2092L130.873 73.8757L126.608 74.419L126.395 72.7525ZM132.483 74.9609L132.109 72.0247L135.283 71.6203L135.117 70.3109L131.942 70.7152L131.702 68.8305L130.254 69.015L130.494 70.8997L126.228 71.4431L125.988 69.5583L124.58 69.7377L124.82 71.6225L121.864 71.9991L122.031 73.3085L124.987 72.9319L125.361 75.8682L128.178 75.5093L128.357 76.918L123.04 77.5952L124.382 88.1301L125.672 87.9659L124.492 78.7007L128.519 78.1877L129.267 84.0602C128.323 83.2934 127.627 81.628 127.274 79.4955L125.39 79.7355L125.518 80.7474L126.649 80.6033C126.702 80.8587 126.755 81.1141 126.825 81.3471L126.487 81.3901C126.503 82.618 126.196 84.0079 125.34 84.8831C125.553 84.9769 125.909 85.234 126.073 85.4148C126.746 84.6839 127.108 83.7304 127.279 82.7005C127.666 83.6795 128.186 84.4398 128.793 84.9271C128.887 84.7136 129.114 84.4426 129.292 84.2586L129.677 87.2743L131.006 87.105L129.848 78.0184L134.074 77.4801L134.822 83.3526C133.764 82.6407 132.971 81.0077 132.591 78.8182L130.707 79.0583L130.835 80.0701L131.966 79.926C132.019 80.1814 132.089 80.4144 132.139 80.65L131.822 80.6904C131.832 81.8787 131.518 83.2091 130.636 84.0471C130.872 84.1582 131.228 84.4154 131.372 84.5986C132.048 83.8875 132.432 82.9514 132.609 81.9612C133.038 82.9549 133.595 83.6904 134.241 84.1726C134.352 83.9367 134.637 83.6384 134.835 83.4518L135.075 85.3366C135.105 85.5747 135.031 85.6245 134.793 85.6548C134.557 85.705 133.784 85.8035 132.948 85.8898C133.149 86.2069 133.366 86.643 133.469 86.9727C134.679 86.8185 135.47 86.6976 135.923 86.4584C136.374 86.1993 136.47 85.8444 136.384 85.1698L135.222 76.0436L129.687 76.7486L129.507 75.34L132.483 74.9609ZM140.956 70.0913L151.471 68.7519L151.966 72.6405L141.451 73.9799L140.956 70.0913ZM148.126 79.0571L154.772 78.2105L154.598 76.8416L147.952 77.6882L147.563 74.6329L153.673 73.8545L152.816 67.1289L139.325 68.8473L140.182 75.573L146.075 74.8224L147.098 82.8575C145.37 82.4324 143.969 81.4012 142.91 79.4191C143.022 78.5581 143.075 77.7046 143.09 76.876L141.5 76.8971C141.584 79.7695 141.056 83.2239 138.945 85.3275C139.268 85.488 139.827 85.9208 140.103 86.1881C141.372 84.9175 142.14 83.1866 142.57 81.3375C144.892 84.5297 148.023 84.897 152.229 84.3612L156.594 83.8052C156.62 83.3785 156.775 82.6934 156.948 82.3085C156.117 82.4345 152.744 82.8641 152.129 82.9425C150.879 83.1017 149.718 83.1689 148.639 83.0846L148.126 79.0571ZM174.407 66.3142L174.22 64.8461L157.276 67.0043L157.463 68.4724L166.233 67.3554C164.701 70.9982 161.728 74.7237 158.069 77.1857C158.41 77.4851 158.959 77.9998 159.226 78.3489C161.799 76.5494 163.959 74.1976 165.672 71.6608L167.077 82.6916L168.645 82.492L166.987 69.4771C167.389 68.6799 167.774 67.905 168.117 67.1153L174.407 66.3142ZM167.649 71.5098C170.187 72.759 173.422 74.7261 175.022 76.0545L176.049 74.7745C174.408 73.4512 171.11 71.6133 168.619 70.4185L167.649 71.5098ZM192.18 62.5987L191.835 62.7433L177.669 64.5478L177.854 65.9961L190.611 64.3711C189.302 65.9692 187.377 67.7871 185.591 68.9622L186.776 78.267C186.822 78.6241 186.715 78.7385 186.301 78.8114C185.847 78.8894 184.322 79.1038 182.668 79.254C182.956 79.6205 183.318 80.2398 183.45 80.6464C185.454 80.3911 186.761 80.2045 187.484 79.8704C188.23 79.5536 188.433 79.0843 188.304 78.0724L187.212 69.5017C189.503 67.8591 191.938 65.452 193.439 63.3052L192.18 62.5987ZM209.007 68.2376L209.485 71.9873L204.287 72.6494L203.809 68.8997L209.007 68.2376ZM211.035 73.0801L210.236 66.8108L202.281 67.8242L203.261 75.522L204.63 75.3476L204.448 73.9191L211.035 73.0801ZM210.861 63.3239L200.862 64.5976L201.026 65.8872L211.025 64.6135L210.861 63.3239ZM213.533 59.4552L197.265 61.5275L199.448 78.669L200.877 78.487L198.873 62.7541L212.265 61.0483L214.026 74.8766C214.066 75.194 213.963 75.3282 213.608 75.3935C213.273 75.4563 212.123 75.6029 210.868 75.7224C211.156 76.0889 211.475 76.6934 211.588 77.1025C213.294 76.8852 214.281 76.7191 214.866 76.4027C215.428 76.069 215.591 75.6047 215.474 74.6921L213.533 59.4552ZM232.305 70.2295L227.544 70.8361L227.354 69.3481L232.116 68.7416L232.305 70.2295ZM227.028 66.7888L231.79 66.1823L231.967 67.571L227.205 68.1776L227.028 66.7888ZM220.847 64.0075L220.665 62.579L224.931 62.0357L225.113 63.4642L220.847 64.0075ZM230.843 61.2826L231.025 62.7111L226.581 63.2772L226.399 61.8487L230.843 61.2826ZM235.478 67.1237L233.435 67.384L233.119 64.9041L226.889 65.6976L226.712 64.3088L232.625 63.5557L232.18 60.0639L226.268 60.817L226.121 59.6663L234.017 58.6605L233.863 57.4503L225.967 58.4561L225.765 56.8689L224.297 57.0559L224.499 58.6431L216.761 59.6287L216.915 60.8389L224.653 59.8533L224.799 61.004L219.125 61.7268L219.57 65.2186L225.244 64.4958L225.421 65.8846L219.192 66.6781L219.331 67.7693L225.56 66.9758L225.737 68.3646L217.623 69.3982L217.772 70.5687L225.886 69.5351L226.076 71.0231L219.667 71.8394L219.812 72.9702L226.22 72.1539L226.394 73.5229C226.437 73.8602 226.333 73.9944 225.959 74.0622C225.622 74.1052 224.434 74.2767 223.238 74.3886C223.48 74.7006 223.786 75.206 223.913 75.5728C225.56 75.363 226.589 75.2118 227.176 74.9152C227.744 74.6212 227.979 74.2485 227.862 73.3359L227.688 71.9669L232.449 71.3604L232.563 72.2532L234.031 72.0662L233.584 68.5546L235.627 68.2943L235.478 67.1237ZM243.41 63.3915L239.244 63.9222L238.716 59.7757L242.882 59.245L243.41 63.3915ZM240.017 69.9932L239.411 65.2317L243.577 64.7009L244.184 69.4625L240.017 69.9932ZM239.804 55.0202C239.784 55.9703 239.596 57.3451 239.419 58.3353L237.197 58.6183L239.037 73.0616L240.386 72.8898L240.187 71.3224L245.702 70.6199L244.062 57.7439L240.769 58.1634C240.997 57.2674 241.215 56.1307 241.429 55.1156L239.804 55.0202ZM253.756 56.4486L247.824 57.2042C248.042 56.2288 248.199 55.2411 248.313 54.2387L246.862 54.0808C246.573 56.8797 245.85 59.7541 244.743 61.6693C245.086 61.8272 245.772 62.1432 246.06 62.3484C246.635 61.3275 247.096 60.0389 247.482 58.6389L252.522 57.997C253.27 65.926 253.356 68.9796 252.79 69.7574C252.624 70.0405 252.411 70.108 252.014 70.1586C251.558 70.2167 250.368 70.3683 249.063 70.4135C249.394 70.7948 249.648 71.3672 249.743 71.7987C250.862 71.7167 251.998 71.6123 252.682 71.4445C253.349 71.299 253.783 71.0624 254.148 70.4512C254.818 69.378 254.687 66.2898 253.852 57.2025L253.756 56.4486ZM251.759 65.7758C250.975 64.6861 249.363 62.9559 248.073 61.6888L247.008 62.5099C248.281 63.7994 249.86 65.5942 250.607 66.7087L251.759 65.7758ZM258.41 53.255C258.975 54.0499 259.496 55.1328 259.671 55.8766L260.781 55.2513C260.588 54.5299 260.025 53.4323 259.428 52.7019L258.41 53.255ZM263.917 55.3358L256.1 56.3315L256.257 57.5615L264.073 56.5658L263.917 55.3358ZM262.964 64.792L263.386 68.1052L259.914 68.5474L259.492 65.2342L262.964 64.792ZM264.139 63.4124L258.028 64.1908L258.875 70.8371L260.185 70.6703L260.068 69.7577L264.869 69.1461L264.139 63.4124ZM257.859 62.7003L264.009 61.9169L263.857 60.7265L257.707 61.5099L257.859 62.7003ZM257.374 58.8911L257.523 60.0616L263.673 59.2782L263.524 58.1076L257.374 58.8911ZM275.011 59.6485L270.567 60.2146L269.98 55.6118L274.008 55.0988L273.833 53.7299L266.85 54.6194C267.039 53.7284 267.2 52.7804 267.302 51.84L265.796 51.7294C265.552 54.4017 264.844 57.0726 263.625 58.9012C264.045 59.0292 264.732 59.365 265.041 59.5677C265.619 58.5666 266.112 57.3747 266.488 56.0566L268.512 55.7988L269.098 60.4016L264.515 60.9854L264.695 62.394L269.278 61.8102L270.269 69.5874L271.737 69.4004L270.746 61.6232L275.19 61.0571L275.011 59.6485ZM292.624 55.6307L288.002 56.2195L287.759 54.3149L292.382 53.7261L292.624 55.6307ZM293.008 58.6463L288.386 59.2352L288.138 57.2909L292.761 56.702L293.008 58.6463ZM293.397 61.7016L288.775 62.2905L288.525 60.3263L293.147 59.7375L293.397 61.7016ZM286.343 53.326L287.652 63.6029L294.853 62.6855L293.544 52.4086L290.092 52.8483C290.175 52.2329 290.248 51.5381 290.323 50.8632L293.835 50.4159L293.673 49.1462L285.281 50.2152L285.443 51.4849L288.855 51.0502C288.854 51.6754 288.826 52.4048 288.783 53.0151L286.343 53.326ZM280.618 62.3617C280.532 63.7436 280.27 65.1682 279.779 66.2187C280.114 66.3171 280.665 66.5291 280.906 66.6799C281.37 65.5724 281.711 63.9765 281.817 62.4308L280.618 62.3617ZM281.078 58.2104L284.49 57.7757L284.74 59.7398L281.328 60.1745L281.078 58.2104ZM280.698 55.2344L284.111 54.7998L284.356 56.7242L280.944 57.1589L280.698 55.2344ZM286.112 60.6942L285.202 53.5519L282.484 53.8981C282.567 53.2827 282.657 52.5656 282.75 51.8683L285.031 51.5777L284.864 50.2682L276.651 51.3145L277.576 58.5758C277.922 61.2939 278.28 64.8975 277.493 67.5785C277.766 67.6647 278.392 67.9882 278.64 68.1984C279.549 65.3609 279.232 61.2883 278.865 58.4115L278.107 52.4596L281.321 52.0502C281.32 52.6754 281.275 53.4271 281.234 54.0573L279.369 54.2949L280.279 61.4372L282.541 61.1491L283.225 66.5256C283.248 66.7042 283.194 66.7514 283.015 66.7742C282.8 66.8218 282.224 66.8951 281.507 66.9663C281.729 67.2808 281.971 67.754 282.071 68.0639C283.043 67.9401 283.675 67.8393 284.089 67.6052C284.458 67.3364 284.534 66.984 284.458 66.3888L283.771 60.9924L286.112 60.6942ZM287.245 64.683C286.945 63.9147 286.238 62.6338 285.633 61.6826L284.664 62.1488C285.252 63.1223 285.942 64.4256 286.229 65.2559L287.245 64.683ZM289.354 63.8296C288.743 64.734 287.441 65.908 286.262 66.6227C286.593 66.8427 287.082 67.2037 287.333 67.4339C288.49 66.7018 289.866 65.4781 290.675 64.3872L289.354 63.8296ZM292.044 64.2128C293.132 64.8403 294.484 65.7972 295.17 66.4356L296.182 65.5204C295.476 64.8845 294.09 63.9723 293.047 63.3794L292.044 64.2128ZM304.859 58.7699L306.486 58.5627C305.571 55.6549 310.234 54.4359 309.853 51.4401C309.562 49.1586 307.595 47.9575 304.797 48.3139C302.635 48.5893 301.203 49.6991 300.071 51.2547L301.269 52.1102C302.225 50.7584 303.439 49.999 304.788 49.8271C306.812 49.5693 307.93 50.435 308.105 51.8039C308.393 54.0656 303.824 55.5548 304.859 58.7699ZM304.53 62.199C304.651 63.1513 305.463 63.6728 306.336 63.5616C307.209 63.4504 307.845 62.7444 307.724 61.7921C307.602 60.8398 306.812 60.3356 305.939 60.4468C305.066 60.558 304.408 61.2467 304.53 62.199Z" fill="#06102B"/>
<path d="M274.746 128.015C276.363 127.323 278.24 127.985 279.066 129.537L290.676 151.361C292.102 154.04 289.554 157.096 286.662 156.177L250.748 144.754C247.759 143.803 247.558 139.651 250.442 138.417L274.746 128.015Z" stroke="white" stroke-width="0.752193"/>
<defs>
<filter id="filter0_d_191_16931" x="94.4632" y="21.3582" width="233.49" height="95.8376" filterUnits="userSpaceOnUse" color-interpolation-filters="sRGB">
<feFlood flood-opacity="0" result="BackgroundImageFix"/>
<feColorMatrix in="SourceAlpha" type="matrix" values="0 0 0 0 0 0 0 0 0 0 0 0 0 0 0 0 0 0 127 0" result="hardAlpha"/>
<feOffset/>
<feGaussianBlur stdDeviation="2.24204"/>
<feComposite in2="hardAlpha" operator="out"/>
<feColorMatrix type="matrix" values="0 0 0 0 0.333333 0 0 0 0 1 0 0 0 0 0.68 0 0 0 0.6 0"/>
<feBlend mode="normal" in2="BackgroundImageFix" result="effect1_dropShadow_191_16931"/>
<feBlend mode="normal" in="SourceGraphic" in2="effect1_dropShadow_191_16931" result="shape"/>
</filter>
<linearGradient id="paint0_linear_191_16931" x1="4.36732" y1="104.552" x2="107.76" y2="130.725" gradientUnits="userSpaceOnUse">
<stop stop-color="#313A65"/>
<stop offset="1" stop-color="#313A65" stop-opacity="0"/>
</linearGradient>
</defs>
</svg>
