<svg width="321" height="197" viewBox="0 0 321 197" fill="none" xmlns="http://www.w3.org/2000/svg">
<path d="M102.323 51.9934C101.752 46.4308 105.1 41.2113 110.393 39.41L203.232 7.81951C214.574 3.95985 226.7 11.0706 228.868 22.8542C230.844 33.5911 223.683 43.8784 212.928 45.7526L116.318 62.588C109.464 63.7825 103.034 58.9148 102.323 51.9934Z" fill="#151F3F" stroke="url(#paint0_linear_191_16947)" stroke-width="0.752193"/>
<g filter="url(#filter0_d_191_16947)">
<path fill-rule="evenodd" clip-rule="evenodd" d="M41.4711 93.3118C20.0062 96.0687 5.33602 116.388 9.47476 137.63C13.0599 156.031 29.5465 168.641 47.7184 167.902C47.4542 172.415 46.4679 177.82 45.6177 182.479C45.1078 185.273 44.6467 187.8 44.4198 189.705C43.968 193.499 48.7481 188.23 55.4988 180.789C60.478 175.301 66.5293 168.631 72.3439 163.545L246.007 129.709C263.074 126.383 274.102 109.715 270.488 92.7063C267.122 76.8617 252.16 66.2517 236.094 68.3152L41.4711 93.3118Z" fill="#9DA4FF"/>
</g>
<path d="M27.7773 137.499L27.5199 136.062L30.0005 135.618L30.2578 137.055L27.7773 137.499ZM27.0934 133.68L29.5739 133.235L29.8277 134.653L27.3472 135.097L27.0934 133.68ZM33.4719 132.537L33.7257 133.955L31.1468 134.417L30.8929 132.999L33.4719 132.537ZM34.1558 136.357L31.5768 136.819L31.3195 135.381L33.8985 134.92L34.1558 136.357ZM38.2618 129.445C38.0544 128.06 37.7935 126.603 37.5291 125.126L36.1511 125.373C36.419 126.869 36.6763 128.306 36.8837 129.692L34.541 130.111L34.7877 131.489L37.0911 131.077C37.5767 134.81 37.6324 138.071 36.3356 140.701L36.318 140.602C35.0271 140.996 33.7131 141.373 32.4546 141.721L32.1761 140.165L36.0348 139.474L35.8338 138.352L31.9752 139.043L31.7602 137.842L35.5794 137.158L34.5324 131.311L30.7132 131.995L30.4911 130.755L34.6647 130.008L34.4602 128.866L30.2866 129.613L30.0293 128.176C31.4382 127.761 32.7452 127.344 33.766 126.918L32.8366 125.926C30.89 126.742 27.4098 127.731 24.5243 128.41C24.7347 128.677 24.9571 129.125 25.0726 129.429C26.227 129.182 27.4926 128.874 28.7349 128.55L28.9676 129.849L24.7152 130.611L24.9197 131.753L29.1721 130.991L29.3941 132.231L25.7127 132.891L26.7597 138.738L30.4411 138.078L30.6562 139.279L26.9354 139.946L27.1363 141.068L30.8571 140.401L31.1603 142.095C29.5742 142.541 28.1223 142.943 26.9587 143.253L27.4044 144.494C29.5671 143.863 32.5586 142.982 35.4875 142.092C35.2542 142.377 35.0209 142.663 34.7447 142.936C35.1414 143.109 35.7414 143.509 36.0143 143.785C39.0139 140.566 39.151 136.112 38.4495 130.833L41.2647 130.329C42.3475 137.511 42.5766 140.152 42.226 140.804C42.075 141.095 41.9084 141.186 41.5737 141.246C41.1997 141.313 40.3299 141.448 39.3708 141.539C39.6544 141.874 39.9212 142.456 40.031 142.843C40.9472 142.74 41.876 142.594 42.4131 142.416C42.9932 142.251 43.3587 142.023 43.6017 141.452C44.123 140.505 43.8102 137.737 42.5497 129.449C42.5144 129.252 42.4354 128.697 42.4354 128.697L38.2618 129.445ZM47.0998 141.13L64.6605 137.985L64.4737 136.942L46.913 140.087L47.0998 141.13ZM60.1991 133.949L55.6318 134.766L55.452 133.762L60.0193 132.945L60.1991 133.949ZM60.534 135.819L55.9667 136.637L55.7798 135.593L60.3472 134.775L60.534 135.819ZM50.0509 136.619L54.4214 135.837L54.6083 136.88L50.2378 137.663L50.0509 136.619ZM49.7231 134.788L54.0936 134.006L54.2734 135.01L49.9029 135.792L49.7231 134.788ZM48.1737 134.192L48.9916 138.759L62.1621 136.401L61.3443 131.834L48.1737 134.192ZM54.1165 126.077L58.6248 125.27L58.8187 126.353L54.3104 127.16L54.1165 126.077ZM53.771 124.148L58.2793 123.341L58.4591 124.345L53.9508 125.152L53.771 124.148ZM55.0013 131.019L54.818 129.995L61.5509 128.79L61.3852 127.864L54.6523 129.07L54.4726 128.066L60.4377 126.998L60.0816 125.009L62.2078 124.629L62.0421 123.703L59.9159 124.084L59.574 122.174L53.6089 123.243L53.3903 122.022L51.9335 122.283L52.152 123.503L46.305 124.55L46.4672 125.456L52.3142 124.409L52.494 125.413L44.5799 126.83L44.7456 127.756L52.6597 126.338L52.8536 127.421L46.8884 128.489L47.0506 129.395L53.0157 128.327L53.1955 129.331L46.7579 130.484L46.9236 131.409L53.3612 130.256L53.5445 131.28L45.591 132.704L45.7743 133.728L63.335 130.583L63.1517 129.559L55.0013 131.019ZM71.3103 127.692C70.6207 128.039 69.9113 128.39 69.2379 128.713L68.5399 124.815L70.7251 124.424L70.4784 123.046L68.2931 123.437L67.5881 119.5L66.1509 119.757L66.856 123.695L64.3361 124.146L64.5828 125.524L67.1027 125.073L67.8712 129.365C66.8807 129.847 65.978 130.252 65.2223 130.57L65.8931 131.933L68.1321 130.821L69.0522 135.96C69.1015 136.235 69.0207 136.351 68.7254 136.404C68.4927 136.466 67.6462 136.618 66.6977 136.767C66.9651 137.126 67.2838 137.658 67.4099 138.021C68.7521 137.801 69.5719 137.614 70.0218 137.29C70.4913 136.962 70.6374 136.529 70.4893 135.702L69.4917 130.131C70.2172 129.757 70.982 129.376 71.7272 128.999L71.3103 127.692ZM80.0956 126.261C79.7077 128.18 78.8767 129.893 77.7369 131.357C76.271 130.319 75.0081 128.94 74.0321 127.347L80.0956 126.261ZM80.7671 124.678L80.5414 124.779L77.4112 125.34L76.886 122.407L81.5911 121.564L81.3479 120.206L76.6427 121.048L76.0893 117.957L74.6521 118.215L75.2056 121.306L70.5989 122.13L70.8421 123.489L75.4488 122.664L75.9741 125.597L71.7611 126.352L72.0043 127.71L72.654 127.594L72.5985 127.624C73.7435 129.593 75.1506 131.21 76.793 132.44C75.4064 133.887 73.7236 135.042 71.9056 135.896C72.2376 136.161 72.7013 136.708 72.9293 137.074C74.8245 136.084 76.572 134.837 78.0162 133.257C79.7022 134.276 81.6235 134.907 83.7838 135.171C83.9298 134.738 84.241 134.093 84.5031 133.742C82.4393 133.562 80.5946 133.019 78.9692 132.111C80.4484 130.16 81.4619 127.764 81.8058 124.919L80.7671 124.678ZM100.524 122.339C101.233 122.212 101.935 122.046 102.255 121.907C102.136 121.583 101.978 121.042 101.869 120.656C101.512 120.821 100.728 120.982 100.256 121.066L96.6333 121.715C96.0033 121.828 95.8035 121.62 95.6766 120.911L95.2782 118.687L100.574 117.738L100.341 116.439L95.0456 117.387L94.5591 114.67L93.1219 114.928L94.2324 121.129C94.5285 122.783 95.1103 123.309 96.8427 122.998L100.524 122.339ZM87.8164 126.26C88.9958 126.72 90.5163 127.382 91.3076 127.83L91.9506 126.881C91.1431 126.457 89.6064 125.818 88.4537 125.394L87.8164 126.26ZM87.3275 124.438L91.4027 123.708L92.1148 127.685C90.6808 128.755 89.2666 129.82 88.2522 130.51C88.2153 129.623 88.0995 128.749 87.9656 128.001L87.3275 124.438ZM92.5748 122.198L85.7435 123.421L86.6036 128.225C86.9033 129.898 87.1553 131.987 86.3011 133.684C86.6316 133.828 87.2352 134.248 87.4884 134.528C88.132 133.356 88.2825 131.927 88.2467 130.592L88.97 131.682C89.9597 130.855 91.1609 129.847 92.3228 128.847L92.8657 131.878C92.9115 132.134 92.8665 132.224 92.5909 132.273C92.335 132.319 91.5313 132.483 90.5793 132.613C90.8396 132.932 91.1246 133.389 91.2704 133.749C92.491 133.53 93.3536 133.355 93.807 133.051C94.2998 132.739 94.3974 132.376 94.2634 131.628L92.5748 122.198ZM89.2242 117.556C89.7469 118.092 90.2801 118.688 90.7937 119.286L86.8073 120.285C87.5886 119.088 88.2974 117.6 88.8951 116.172L87.3502 115.941C86.8089 117.684 85.7951 119.511 85.495 119.991C85.1753 120.475 84.8935 120.831 84.5891 120.946C84.8298 121.269 85.1767 121.958 85.3084 122.239C85.7224 121.942 86.3973 121.74 91.6549 120.351C91.999 120.798 92.2966 121.212 92.5246 121.577L93.6823 120.781C92.9822 119.707 91.5287 118.058 90.3243 116.892L89.2242 117.556ZM98.6157 130.971C97.6904 131.136 97.4921 131.05 97.3757 130.4L96.8469 127.447L102.359 126.46L102.123 125.141L96.6108 126.128L96.1913 123.785L94.7541 124.043L95.9386 130.658C96.2277 132.272 96.8009 132.637 98.7105 132.295L102.195 131.671C103.829 131.378 104.142 130.631 103.861 128.04C103.45 128.012 102.84 127.898 102.463 127.722C102.742 129.846 102.671 130.244 101.844 130.392L98.6157 130.971ZM112.069 116.574L109.667 117.004L109.882 118.205L115.946 117.119L115.73 115.918L113.348 116.345L113.042 114.632L115.877 114.124L115.662 112.924L112.827 113.431L112.474 111.462L111.194 111.692L111.547 113.66L108.732 114.164L108.947 115.365L111.762 114.861L112.069 116.574ZM115.295 121.767L112.086 122.341L111.68 120.077L114.889 119.503L115.295 121.767ZM115.978 118.21L110.269 119.233L111.059 123.643L116.768 122.62L115.978 118.21ZM113.984 126.817C113.745 126.047 113.115 124.798 112.541 123.865L111.452 124.365C112.01 125.321 112.584 126.6 112.807 127.393L113.984 126.817ZM110.442 122.351C110.071 121.869 108.466 119.942 107.863 119.298L107.644 118.077L109.416 117.76L109.177 116.421L107.405 116.739L106.643 112.486L105.364 112.715L106.125 116.968L103.802 117.384L104.042 118.722L106.247 118.328C106.234 121.093 105.751 124.41 104.984 126.254C105.273 126.507 105.703 126.979 105.904 127.309C106.43 125.934 106.787 123.839 106.971 121.693L108.579 130.67L109.858 130.441L108.166 120.991C108.811 121.871 109.558 122.977 109.907 123.564L110.442 122.351ZM116.203 126.724C116.414 125.752 116.616 124.496 116.777 123.35L115.378 123.255C115.348 124.337 115.135 125.981 114.914 127.016L115.246 127.058C113.56 127.624 112.007 128.146 110.854 128.515L111.441 129.751C113.37 129.06 116.049 128.133 118.586 127.212L118.289 126.005L116.203 126.724ZM119.871 122.816C119.538 121.637 118.667 119.72 117.817 118.267L116.768 118.76C117.601 120.236 118.424 122.222 118.764 123.441L119.871 122.816ZM121.595 114.401L120.394 114.616L119.608 110.226L118.249 110.469L119.036 114.859L116.083 115.388L116.322 116.727L119.275 116.198L121.151 126.671C121.2 126.947 121.116 127.043 120.883 127.105C120.611 127.174 119.804 127.319 118.911 127.438C119.175 127.777 119.488 128.391 119.61 128.735C120.831 128.517 121.631 128.333 122.101 128.005C122.531 127.684 122.654 127.235 122.509 126.428L120.634 115.955L121.835 115.74L121.595 114.401ZM141.349 113.18L141.085 111.703L132.934 113.163C132.816 111.254 132.515 109.459 132.259 107.92L130.704 108.198C130.952 109.698 131.296 111.506 131.418 113.434L123.839 114.791L124.103 116.268L131.446 114.953C131.436 118.978 130.242 123.316 125.455 126.429C125.922 126.65 126.47 127.1 126.753 127.436C128.873 126 130.303 124.342 131.262 122.544C132.785 123.45 134.622 124.747 135.534 125.64L136.602 124.453C135.604 123.535 133.645 122.24 132.089 121.38L131.589 121.876C132.548 119.856 132.92 117.737 132.994 115.651C135.343 120.148 138.529 123.417 142.785 124.606C142.967 124.146 143.33 123.451 143.648 123.069C139.431 122.098 136.182 118.819 134.025 114.491L141.349 113.18ZM158.372 106.352C158.022 105.643 157.223 104.587 156.517 103.82L155.338 104.498C156.012 105.312 156.794 106.391 157.148 107.12L158.372 106.352ZM151.425 106.702L148.275 107.266L148.442 107.176C148.123 106.644 147.499 105.882 146.962 105.267L145.717 105.916C146.104 106.375 146.562 107.004 146.897 107.513L142.861 108.236L143.097 109.555L151.661 108.021L151.425 106.702ZM147.783 112.576C147.41 112.196 146.737 111.727 146.098 111.334C146.176 110.751 146.232 110.152 146.26 109.517L145.001 109.519C144.949 111.499 144.538 113.401 143.647 114.78C143.974 114.904 144.547 115.269 144.763 115.454C145.286 114.629 145.652 113.608 145.898 112.487C146.393 112.866 146.864 113.229 147.164 113.541L147.783 112.576ZM146.545 118.711C146.386 119.978 145.994 121.308 145.362 122.316C145.702 122.397 146.29 122.617 146.581 122.768C147.183 121.705 147.641 120.18 147.831 118.744L146.545 118.711ZM150.716 118.289C151.533 119.219 152.495 120.51 152.953 121.363L154.026 120.662C153.553 119.833 152.581 118.605 151.748 117.698L150.716 118.289ZM149.28 114.239L148.61 114.358C149.036 113.673 149.378 112.86 149.608 111.985C150.345 112.585 151.096 113.263 151.51 113.758L152.285 112.867C151.755 112.292 150.752 111.455 149.89 110.838C149.984 110.232 150.052 109.59 150.097 108.931L148.818 108.937C148.758 110.756 148.306 112.544 147.417 113.82C147.704 113.952 148.155 114.196 148.433 114.39L147.902 114.485L148.148 115.863L144.25 116.561L144.483 117.861L148.381 117.163L149.481 123.305L150.859 123.058L149.759 116.916L153.263 116.288L153.031 114.989L149.526 115.617L149.28 114.239ZM155.692 117.032L158.271 116.57L158.758 119.287L156.179 119.749L155.692 117.032ZM157.337 111.353L154.758 111.815L154.289 109.197L156.868 108.735L157.337 111.353ZM158.042 115.29L155.463 115.752L154.984 113.075L157.563 112.613L158.042 115.29ZM162.892 118.547L160.077 119.051L159.59 116.334L162.11 115.883L161.881 114.603L159.361 115.054L158.882 112.377L161.382 111.929L161.157 110.669L158.656 111.117L158.187 108.499L160.904 108.012L160.664 106.673L154.247 107.823C154.486 106.662 154.675 105.45 154.766 104.255L153.374 104.2C153.158 106.961 152.495 109.843 151.447 111.819C151.797 111.959 152.433 112.333 152.715 112.546C152.924 112.123 153.09 111.687 153.272 111.228L155.256 122.312L156.595 122.072L156.419 121.087L163.132 119.885L162.892 118.547ZM179.555 103.128L179.319 101.809L166.601 104.086C166.922 103.379 167.196 102.639 167.41 101.91L166.037 101.729C165.438 103.828 164.198 105.98 162.755 107.457C163.1 107.68 163.659 108.189 163.865 108.437C164.592 107.616 165.271 106.641 165.853 105.582L179.555 103.128ZM167.115 120.229C167.656 119.055 168.132 117.283 168.395 115.916L166.953 115.808C166.69 117.176 166.158 118.856 165.638 119.924L167.115 120.229ZM170.339 115.771C170.787 116.909 171.236 118.394 171.398 119.299L172.796 118.825C172.618 117.943 172.137 116.505 171.677 115.409L170.339 115.771ZM174.388 115.005C175.088 116.078 175.871 117.503 176.214 118.396L177.598 117.843C177.236 116.953 176.436 115.552 175.684 114.529L174.388 115.005ZM178.429 114.2C179.357 115.294 180.535 116.769 181.085 117.686L182.394 116.822C181.788 115.935 180.593 114.483 179.653 113.432L178.429 114.2ZM168.001 109.972L170.048 109.605L170.647 112.952L168.6 113.319L168.001 109.972ZM173.592 108.971L174.191 112.318L171.907 112.726L171.308 109.38L173.592 108.971ZM177.017 108.357L177.617 111.704L175.451 112.092L174.852 108.745L177.017 108.357ZM178.975 111.461L178.376 108.114L180.6 107.716L180.364 106.397L178.14 106.795L177.748 104.61L176.39 104.853L176.781 107.038L174.616 107.426L174.224 105.241L172.964 105.467L173.356 107.652L171.072 108.061L170.681 105.875L169.421 106.101L169.812 108.286L167.765 108.653L167.373 106.468L166.054 106.704L166.446 108.889L164.083 109.312L164.319 110.631L166.682 110.208L167.281 113.555L164.269 114.094L164.505 115.413L181.83 112.311L181.593 110.992L178.975 111.461ZM194.019 102.204C193.451 101.757 192.405 101.132 191.485 100.647C191.654 99.6614 191.766 98.5848 191.792 97.4829L190.336 97.5202C190.317 100.592 189.606 103.32 188.045 105.265C188.415 105.402 189.061 105.835 189.324 106.052C190.175 104.904 190.796 103.493 191.204 101.916C192.065 102.412 192.986 103.019 193.511 103.453L194.019 102.204ZM185.552 98.3768C184.932 99.91 183.503 101.913 182.151 103.212C182.453 103.422 182.918 103.867 183.168 104.127C184.61 102.65 186.117 100.511 186.979 98.6293L185.552 98.3768ZM186.736 102.269C185.945 104.544 184.441 106.926 182.886 108.566C183.179 108.839 183.755 109.447 183.946 109.717C184.588 108.993 185.206 108.131 185.793 107.213L187.478 116.623L188.836 116.38L186.866 105.375C187.364 104.412 187.78 103.443 188.117 102.489L186.736 102.269ZM196.38 109.035L200.75 108.253L200.528 107.012L196.158 107.795L195.566 104.487L194.798 104.625C195.579 103.652 196.167 102.511 196.539 101.184C197.851 102.046 199.278 103.091 200.063 103.845L200.887 102.661C200.013 101.863 198.302 100.706 196.828 99.8523C197.01 98.8242 197.072 97.6956 197.041 96.5023L195.612 96.5754C195.729 99.7241 195.053 102.304 193.325 104.117C193.629 104.225 194.122 104.482 194.463 104.685L194.207 104.731L195.681 112.96C194.335 112.591 193.205 111.615 192.241 109.634C192.24 108.72 192.185 107.734 192.057 106.68L190.642 106.832C191.087 110.45 190.873 113.231 189.161 115.245C189.515 115.405 190.194 115.791 190.433 115.992C191.356 114.791 191.878 113.397 192.099 111.793C193.92 114.474 196.094 114.816 199.028 114.291L202.296 113.705C202.268 113.324 202.372 112.656 202.512 112.305L198.87 112.958C198.26 113.067 197.662 113.133 197.113 113.13L196.38 109.035ZM219.459 95.292L219.198 93.8352L201.815 96.948L202.075 98.4048L209.596 97.0581L212.289 112.099L213.844 111.82L211.99 101.465C214.449 102.264 217.377 103.406 218.913 104.269L219.7 102.767C217.933 101.864 214.525 100.645 211.982 99.9428L211.779 100.284L211.151 96.7797L219.459 95.292ZM240.577 98.9672L232.506 100.413L231.935 97.2232L238.904 95.9753L238.654 94.5776L231.684 95.8255L231.113 92.6362C233.387 91.9446 235.466 91.1863 237.048 90.3748L235.737 89.4107C232.95 90.8648 227.332 92.3989 222.725 93.4475C222.923 93.7575 223.202 94.2966 223.332 94.6798C225.342 94.2183 227.542 93.6821 229.665 93.0581L230.208 96.0899L223.436 97.3026L223.686 98.7003L230.458 97.4876L231.029 100.677L222.938 102.126L223.195 103.563L231.287 102.114L232.066 106.465C232.14 106.878 231.987 107.048 231.554 107.125C231.105 107.226 229.573 107.521 227.908 107.758C228.215 108.109 228.607 108.71 228.799 109.102C230.87 108.751 232.123 108.486 232.809 108.12C233.495 107.753 233.733 107.264 233.546 106.22L232.763 101.85L240.835 100.404L240.577 98.9672ZM250.624 98.7936L252.238 98.5045C251.178 95.6467 255.774 94.1939 255.242 91.2212C254.836 88.9572 252.811 87.857 250.035 88.354C247.889 88.7383 246.515 89.9189 245.463 91.5296L246.702 92.3236C247.59 90.9253 248.764 90.1055 250.102 89.8658C252.11 89.5062 253.271 90.3143 253.514 91.6727C253.916 93.917 249.429 95.6349 250.624 98.7936ZM250.468 102.235C250.637 103.18 251.475 103.66 252.341 103.505C253.208 103.35 253.807 102.612 253.638 101.667C253.469 100.722 252.654 100.259 251.788 100.414C250.922 100.569 250.299 101.29 250.468 102.235Z" fill="#06102B"/>
<path fill-rule="evenodd" clip-rule="evenodd" d="M253.299 171.371C250.403 165.62 249.768 159.652 252.022 154.433C257.325 142.161 276.606 138.685 295.087 146.67C313.569 154.656 324.252 171.078 318.949 183.351C313.647 195.624 294.366 199.1 275.884 191.114C268.62 187.976 262.561 183.534 258.204 178.553C253.903 179.436 250.105 180.144 248.223 180.144C245.07 180.144 248.464 176.152 253.299 171.371Z" fill="#151F3F"/>
<path d="M252.022 154.433L251.677 154.284L252.022 154.433ZM253.299 171.371L253.635 171.202L253.758 171.446L253.563 171.639L253.299 171.371ZM295.087 146.67L294.938 147.016L295.087 146.67ZM318.949 183.351L319.295 183.5L318.949 183.351ZM275.884 191.114L275.735 191.459L275.884 191.114ZM258.204 178.553L258.128 178.184L258.343 178.14L258.487 178.305L258.204 178.553ZM252.368 154.583C250.168 159.673 250.775 165.522 253.635 171.202L252.963 171.54C250.031 165.718 249.367 159.631 251.677 154.284L252.368 154.583ZM294.938 147.016C285.756 143.048 276.39 141.935 268.68 143.325C260.966 144.716 254.953 148.598 252.368 154.583L251.677 154.284C254.394 147.996 260.674 144.004 268.546 142.585C276.422 141.165 285.937 142.307 295.237 146.325L294.938 147.016ZM318.604 183.202C321.19 177.217 319.896 170.178 315.622 163.608C311.35 157.04 304.121 150.983 294.938 147.016L295.237 146.325C304.536 150.343 311.889 156.49 316.253 163.198C320.615 169.903 322.012 177.212 319.295 183.5L318.604 183.202ZM276.033 190.769C285.216 194.736 294.581 195.849 302.292 194.459C310.006 193.069 316.018 189.186 318.604 183.202L319.295 183.5C316.578 189.789 310.298 193.78 302.426 195.2C294.55 196.619 285.034 195.477 275.735 191.459L276.033 190.769ZM258.487 178.305C262.805 183.241 268.817 187.651 276.033 190.769L275.735 191.459C268.424 188.3 262.318 183.827 257.921 178.8L258.487 178.305ZM248.223 179.768C250.057 179.768 253.81 179.071 258.128 178.184L258.279 178.921C253.995 179.801 250.152 180.52 248.223 180.52V179.768ZM253.563 171.639C251.143 174.032 249.113 176.199 248.079 177.758C247.822 178.145 247.634 178.484 247.517 178.771C247.397 179.063 247.365 179.269 247.38 179.404C247.392 179.515 247.435 179.583 247.529 179.639C247.645 179.708 247.859 179.768 248.223 179.768V180.52C247.798 180.52 247.428 180.454 247.145 180.286C246.841 180.105 246.669 179.824 246.632 179.486C246.597 179.172 246.68 178.83 246.82 178.486C246.963 178.137 247.18 177.753 247.452 177.342C248.535 175.71 250.62 173.491 253.035 171.104L253.563 171.639Z" fill="url(#paint1_linear_191_16947)"/>
<path d="M283.282 158.299C279.328 156.172 275.85 156.897 273.842 160.628C271.419 165.132 273.024 167.786 279.553 171.299L280.474 169.84C275.854 167.354 273.51 165.588 275.655 161.603C277.331 158.487 279.997 158.486 282.572 159.872C283.886 160.579 285.744 161.825 284.854 163.86C284.586 162.91 283.83 162.08 282.568 161.428C280.644 160.433 278.602 160.113 277.29 162.551C275.973 164.999 277.342 166.57 279.261 167.575C280.528 168.243 281.648 168.422 282.594 168.111L282.126 168.98L283.949 169.961L286.293 165.605C287.918 162.585 287.171 160.392 283.282 158.299ZM280.575 166.327C279.038 165.5 278.504 164.639 279.102 163.526C279.701 162.413 280.714 162.385 282.251 163.211C283.714 163.998 284.26 164.812 283.81 165.827L283.621 166.176C283.017 167.122 282.037 167.114 280.575 166.327ZM297.413 165.903C293.46 163.776 289.981 164.501 287.974 168.231C285.55 172.736 287.156 175.39 293.685 178.903L294.606 177.444C289.985 174.958 287.642 173.192 289.786 169.207C291.463 166.091 294.128 166.09 296.704 167.476C298.018 168.183 299.876 169.429 298.986 171.464C298.718 170.514 297.962 169.683 296.7 169.032C294.775 168.037 292.733 167.717 291.422 170.155C290.104 172.603 291.474 174.173 293.393 175.179C294.659 175.847 295.78 176.026 296.726 175.715L296.258 176.584L298.081 177.565L300.425 173.209C302.05 170.188 301.303 167.996 297.413 165.903ZM294.706 173.931C293.169 173.104 292.635 172.243 293.234 171.13C293.833 170.017 294.846 169.988 296.383 170.815C297.845 171.602 298.392 172.416 297.941 173.431L297.753 173.78C297.149 174.726 296.169 174.718 294.706 173.931Z" fill="white"/>
<defs>
<filter id="filter0_d_191_16947" x="3.87183" y="63.1555" width="272.206" height="132.716" filterUnits="userSpaceOnUse" color-interpolation-filters="sRGB">
<feFlood flood-opacity="0" result="BackgroundImageFix"/>
<feColorMatrix in="SourceAlpha" type="matrix" values="0 0 0 0 0 0 0 0 0 0 0 0 0 0 0 0 0 0 127 0" result="hardAlpha"/>
<feOffset/>
<feGaussianBlur stdDeviation="2.45178"/>
<feComposite in2="hardAlpha" operator="out"/>
<feColorMatrix type="matrix" values="0 0 0 0 0.615686 0 0 0 0 0.643137 0 0 0 0 1 0 0 0 0.6 0"/>
<feBlend mode="normal" in2="BackgroundImageFix" result="effect1_dropShadow_191_16947"/>
<feBlend mode="normal" in="SourceGraphic" in2="effect1_dropShadow_191_16947" result="shape"/>
</filter>
<linearGradient id="paint0_linear_191_16947" x1="100.69" y1="25.754" x2="224.534" y2="67.4745" gradientUnits="userSpaceOnUse">
<stop stop-color="#313A65"/>
<stop offset="1" stop-color="#313A65" stop-opacity="0"/>
</linearGradient>
<linearGradient id="paint1_linear_191_16947" x1="317.759" y1="145.824" x2="239.466" y2="165.644" gradientUnits="userSpaceOnUse">
<stop stop-color="#313A65"/>
<stop offset="1" stop-color="#313A65" stop-opacity="0"/>
</linearGradient>
</defs>
</svg>
